<svg width="96" height="96" fill="none" xmlns="http://www.w3.org/2000/svg"><g clip-path="url(#clip0_44_21760)"><mask id="mask0_44_21760" style="mask-type:luminance" maskUnits="userSpaceOnUse" x="0" y="0" width="96" height="96"><path d="M96 0H0v96h96V0z" fill="#fff"/></mask><g mask="url(#mask0_44_21760)"><mask id="mask1_44_21760" style="mask-type:luminance" maskUnits="userSpaceOnUse" x="0" y="0" width="96" height="96"><path d="M0 0h96v96H0V0z" fill="#fff"/></mask><g mask="url(#mask1_44_21760)"><mask id="mask2_44_21760" style="mask-type:luminance" maskUnits="userSpaceOnUse" x="0" y="0" width="96" height="96"><path d="M96 0H0v96h96V0z" fill="#fff"/></mask><g mask="url(#mask2_44_21760)"><mask id="mask3_44_21760" style="mask-type:luminance" maskUnits="userSpaceOnUse" x="0" y="0" width="96" height="94"><path d="M96 0H0v93.12h96V0z" fill="#fff"/></mask><g mask="url(#mask3_44_21760)"><path d="M85.798 54.496c.08.155.162.306.246.45 1.966 3.364 1.4 9.178-.69 12.364" stroke="#009245" stroke-width="5.781"/></g><mask id="mask4_44_21760" style="mask-type:luminance" maskUnits="userSpaceOnUse" x="-72" y="0" width="97" height="94"><path d="M24.75 0h-96v93.12h96V0z" fill="#fff"/></mask><g mask="url(#mask4_44_21760)"><path d="M11.316 75.352c.246 2.337 1.029 4.485 1.934 5.254 1.189 1.01 2.025 2.617 2.034 7.022" stroke="#009245" stroke-width="5.629"/></g><mask id="mask5_44_21760" style="mask-type:luminance" maskUnits="userSpaceOnUse" x="-72" y="0" width="97" height="94"><path d="M24.75 0h-96v93.12h96V0z" fill="#fff"/></mask><g mask="url(#mask5_44_21760)"><path d="M15.372 9.206c.156 1.687-.01 3.65-.647 5.666-.691 2.187-1.017 5.25-.834 7.948" stroke="#009245" stroke-width="5.447"/></g><mask id="mask6_44_21760" style="mask-type:luminance" maskUnits="userSpaceOnUse" x="-51" y="0" width="97" height="96"><path d="M45.375 0h-96v96h96V0z" fill="#fff"/></mask><g mask="url(#mask6_44_21760)"><path d="M37.594 32.947c-.069 2.983-1.067 6.246-2.743 8.332-1.06 1.318-1.645 3.196-1.803 5.241" stroke="#009245" stroke-width="7.581"/></g></g><path d="M55.299 61.46c-1.664 0-3.377-.032-5.1.146-14.334 1.482-22.185 3.98-27.77 10.616-3.679 4.371-6.099 10.884-6.438 16.982-.425 7.64 72.044 7.452 72.049.224.007-10.15-2.82-12.731-7.537-18.2-7.097-8.228-18.65-9.769-25.204-9.769z" fill="#FFD527"/><path d="M55.299 61.46c-1.664 0-3.377-.032-5.1.146-14.334 1.482-22.185 3.98-27.77 10.616-3.679 4.371-6.099 10.884-6.438 16.982-.425 7.64 72.044 7.452 72.049.224.007-10.15-2.82-12.731-7.537-18.2-7.097-8.228-18.65-9.769-25.204-9.769z" stroke="#FFD527" stroke-width="1.969" stroke-linecap="round" stroke-linejoin="round"/><path d="M88.034 88.612c-.144-9.477-2.943-12.065-7.532-17.385C73.406 63 61.855 61.46 55.3 61.46c-1.664 0-3.377-.031-5.1.147-14.334 1.482-22.185 3.98-27.77 10.616-3.56 4.23-5.941 10.466-6.399 16.39" stroke="#F98F16" stroke-width="1.969" stroke-linecap="round" stroke-linejoin="round"/><path d="M21.038 53.95c-6.922 1.205-13.26 17.493-6.225 11.188-4.586 3.647-1.2 8.506 1.283 4.334-1.906 2.988 1.148 6.244 2.675 3.726.227 2.158 6.704 4.452 11.562-3.176" stroke="#FA9016" stroke-width="3.424" stroke-linecap="round" stroke-linejoin="round"/><path d="M21.038 53.95c-6.922 1.205-13.26 17.493-6.225 11.188-4.586 3.647-1.2 8.506 1.283 4.334-1.906 2.988 1.148 6.244 2.675 3.726.227 2.158 6.704 4.452 11.562-3.176" fill="#FFD527"/><path d="M70.868 48.528c7.029.08 16.952 15.145 8.641 10.048 5.311 2.866 3.124 8.205-.256 4.484 2.545 2.645.314 6.35-1.754 4.109.273 2.167-5.517 5.47-12.009-1.282" stroke="#FA9016" stroke-width="3.428" stroke-linecap="round" stroke-linejoin="round"/><path d="M70.868 48.528c7.029.08 16.952 15.145 8.641 10.048 5.311 2.866 3.124 8.205-.256 4.484 2.545 2.645.314 6.35-1.754 4.109.273 2.167-5.517 5.47-12.009-1.282" fill="#FFD527"/><path d="M84.018 77.728c.611 3.327.996 5.943 1.123 8.382" stroke="#FBED20" stroke-width="1.969" stroke-linecap="round" stroke-linejoin="round"/><path d="M21.613 85.146C15.33 89.68 9.91 89.43 8.68 87.967c-2.289-2.718 6.296-13.69 14.525-16.805" fill="#FFD427"/><path d="M21.613 85.146C15.33 89.68 9.91 89.43 8.68 87.967c-2.289-2.718 6.296-13.69 14.525-16.805" stroke="#F98F16" stroke-width="1.969" stroke-miterlimit="10" stroke-linecap="round"/><path d="M11.447 84.947c1.23-2.545 3.488-5.352 5.765-7.232" stroke="#fff" stroke-width="1.969" stroke-linecap="round" stroke-linejoin="round"/><path d="M81.406 78.429c6.298 3.09 11.23 2.14 12.5-.139 2.296-4.126-17.522-14.613-19.265-14.687" fill="#FFD427"/><path d="M81.406 78.429c6.298 3.09 11.23 2.14 12.5-.139 2.296-4.126-17.522-14.613-19.265-14.687" stroke="#F98F16" stroke-width="1.969" stroke-miterlimit="10" stroke-linecap="round"/><path d="M90.65 75.464c-1.367-1.579-3.959-3.391-8.766-5.842" stroke="#FBED20" stroke-width="1.969" stroke-linecap="round" stroke-linejoin="round"/><path d="M40.229 3.246c-11.823 1.32-21.003 5.382-20.503 9.07.5 3.69 3.499 16.917 3.499 16.917l39.172-4.751s.643-13.26.144-16.95c-.5-3.688-10.49-5.607-22.312-4.286z" fill="#204564"/><path d="M38.442 3.625c-3.602.402-6.958 1.059-9.87 1.882 1.425 9.495 3.76 21.787 3.76 21.787l8.22-1.427s-1.46-16.102-2.11-22.242zM22.81 7.551c1.278-.208 2.027-.318 3.496-.54a1364.156 1364.156 0 013.52 20.716l-2.404.487s-3.193-14.631-4.613-20.663z" fill="#1180C5"/><path d="M49.895 17.52l-3.37-1.827-.665-6.094 2.91-2.39c.55-.45 1.397-.103 1.474.606l.965 8.851c.077.709-.678 1.2-1.315.855zm-10.602-7.228l5.256-.47.641 5.884-5.256.47c-1.285.115-2.438-.822-2.576-2.091l-.14-1.286a2.27 2.27 0 012.075-2.507z" fill="#fff"/><path d="M43.632 20.267l-.679.06a.709.709 0 01-.712-.423l-2.336-5.423 3.755-.335.587 5.378a.673.673 0 01-.615.742z" fill="#fff"/><path d="M62.397 24.482s.643-13.26.144-16.95c-.5-3.688-10.49-5.607-22.312-4.286-11.823 1.32-21.003 5.382-20.503 9.07.5 3.69 3.499 16.917 3.499 16.917" stroke="#00112C" stroke-width="1.764" stroke-linecap="round" stroke-linejoin="round"/><path d="M42.856 22.8c18.202-2.033 33.58.922 34.35 6.6.769 5.68-13.363 11.931-31.565 13.965-18.201 2.034-33.58-.92-34.35-6.6-.768-5.678 13.363-11.93 31.565-13.964z" fill="#143652"/><path d="M42.856 22.8c18.202-2.033 33.58.922 34.35 6.6.769 5.68-13.363 11.931-31.565 13.965-18.201 2.034-33.58-.92-34.35-6.6-.768-5.678 13.363-11.93 31.565-13.964z" stroke="#00112B" stroke-width="1.94" stroke-linecap="round" stroke-linejoin="round"/><path d="M26.584 79.929c-6.784-5.48-11.058-13.524-11.028-22.467.056-16.386 14.538-29.584 32.348-29.48 17.809.104 32.2 13.47 32.145 29.856-.018 5.12-1.444 9.93-3.94 14.119" fill="#FFD527"/><path d="M26.584 79.929c-6.784-5.48-11.058-13.524-11.028-22.467.056-16.386 14.538-29.584 32.348-29.48 17.809.104 32.2 13.47 32.145 29.856-.018 5.12-1.444 9.93-3.94 14.119" stroke="#F98F16" stroke-width="1.939" stroke-linecap="round" stroke-linejoin="round"/><path d="M67.418 38.31c6.982 5.223 14.058 17.834 6.187 30.141" stroke="#FBED20" stroke-width="1.939" stroke-linecap="round" stroke-linejoin="round"/><path d="M21.055 62.146a17.695 17.695 0 01-.848-2.845m.207-7.098c1.31-6.516 7.576-17.271 22.402-19.478" stroke="#fff" stroke-width="1.939" stroke-linecap="round" stroke-linejoin="round"/><path d="M61.392 39.248c3.093-1.095 7.006 2.087 8.74 7.106 1.735 5.019.633 9.975-2.459 11.07-3.093 1.094-7.006-2.088-8.74-7.107s-.633-9.975 2.46-11.07z" fill="#000"/><path d="M62.604 51.596c.85 2.014 3.211 2.64 4.938 1.576 1.726-1.065.984-4.074-1.746-4.62-.944-.188-3-.53-3.811-1.447-.884-.998-.783-2.418.455-3.358 1.237-.94 3.44-.382 4.302 1.751m-4.152-3.421l4.45 12.636" stroke="#30E855" stroke-width="1.264" stroke-linecap="round" stroke-linejoin="round"/><path d="M60.669 40.997c.476.121.749.802.61 1.52-.139.72-.638 1.204-1.114 1.083-.476-.12-.749-.801-.61-1.52s.638-1.204 1.114-1.083z" fill="#fff"/><path d="M39.525 40.515c3.31.903 4.939 5.801 3.639 10.941-1.3 5.14-5.038 8.575-8.347 7.673-3.31-.903-4.94-5.801-3.64-10.941 1.3-5.14 5.038-8.575 8.348-7.673z" fill="#000"/><path d="M37.75 41.617c.371.431.223 1.202-.332 1.721-.554.52-1.304.591-1.675.16-.37-.431-.222-1.202.332-1.721.555-.52 1.305-.592 1.675-.16z" fill="#fff"/><path d="M33.704 51.345c-.08 2.187 1.877 3.796 3.975 3.603 2.099-.194 2.718-3.228.376-4.927-.81-.588-2.602-1.806-2.967-2.989-.397-1.288.32-2.52 1.902-2.819 1.582-.297 3.42 1.18 3.298 3.48m-2.424-4.915l-1.333 13.335" stroke="#30E855" stroke-width="1.291" stroke-linecap="round" stroke-linejoin="round"/><path d="M64.472 63.902c.834 6.973-.87 24.552-10.6 24.61-9.967.058-13.627-16.123-14.901-23.233-.6-.831-.802-1.682-.895-2.253-.327-2.006 1.728-2.573 5.316-2.994 6.26-.734 5.89-4.974 10.48-5.594 5.122-.693 6.083 4.868 10.53 4.669 6.4-.288 4.637 4.12.07 4.795z" fill="#FF5D1F"/><path d="M64.472 63.902c.834 6.973-.87 24.552-10.6 24.61-9.967.058-13.627-16.123-14.901-23.233-.6-.831-.802-1.682-.895-2.253-.327-2.006 1.728-2.573 5.316-2.994 6.26-.734 5.89-4.974 10.48-5.594 5.122-.693 6.083 4.868 10.53 4.669 6.4-.288 4.637 4.12.07 4.795z" stroke="#CF3502" stroke-width="1.551" stroke-linecap="round" stroke-linejoin="round"/><path d="M61.238 64.702c-6.79.584-12.55.777-17.434.088.885 7.871 3.29 18.406 10.733 18.115 7.003-.275 6.904-15.283 6.7-18.203z" fill="#7D0909"/><path d="M55.483 69.427c-.008-1.504-6.286-1.58-5.935-.041.313 1.475 1.926 5.687 3.965 8.036 1.532-1.826 1.997-6.76 1.97-7.995z" fill="#CF3502"/><path d="M64.264 63.962c-8.94 1.516-17.204 1.176-22.614.102" stroke="#7D0909" stroke-width="1.551" stroke-linecap="round" stroke-linejoin="round"/><path d="M43.883 61.868c3.357-.306 5.988-1.503 8.986-5.128" stroke="#FFB484" stroke-width="1.551" stroke-linecap="round" stroke-linejoin="round"/><path d="M43.911 51.464c2.044-.417 4.118.99 4.63 3.137.511 2.148-.733 4.23-2.777 4.646-2.044.416-4.118-.99-4.63-3.138-.51-2.147.733-4.23 2.777-4.645zm18.541-.664c2.06-.424 4.15.96 4.66 3.087.51 2.128-.748 4.2-2.81 4.624-2.061.424-4.15-.96-4.66-3.087-.51-2.128.748-4.2 2.81-4.624z" stroke="#D7D0D0" stroke-width="1.126"/><path d="M44.51 51.435c2.073-.371 4.13 1.062 4.59 3.2.46 2.137-.849 4.175-2.922 4.547-2.073.371-4.13-1.062-4.59-3.2-.46-2.137.85-4.175 2.922-4.547zm18.54-.705c2.073-.371 4.13 1.062 4.59 3.2.46 2.137-.85 4.175-2.923 4.546-2.073.372-4.13-1.061-4.59-3.199-.46-2.137.85-4.175 2.922-4.547z" stroke="#fff" stroke-width="1.126"/><mask id="mask7_44_21760" style="mask-type:luminance" maskUnits="userSpaceOnUse" x="0" y="0" width="96" height="96"><path d="M0 0h96v96H0V0z" fill="#fff"/></mask><g mask="url(#mask7_44_21760)"><mask id="mask8_44_21760" style="mask-type:luminance" maskUnits="userSpaceOnUse" x="0" y="0" width="96" height="100"><path d="M0 0h96v99.84H0V0z" fill="#fff"/></mask><g mask="url(#mask8_44_21760)"><path d="M11.186 56.111c-.302 1.046-.677 2-1.123 2.802-2.281 4.104-.317 10.884 1.673 14.497.134.243.255.498.364.765" stroke="#19D672" stroke-width="11.473"/><path d="M10.556 57.9a10.92 10.92 0 01-.493 1.013c-2.098 3.775-.605 9.814 1.197 13.57" stroke="#009245" stroke-width="9.178"/><path d="M9.085 62.367c-.156 1.819.098 3.795.57 5.66" stroke="#19D673" stroke-width="7.649" stroke-linecap="round" stroke-linejoin="round"/><path d="M9.176 63.038c1.962 0 3.555.865 3.555 1.931S11.138 66.9 9.176 66.9c-1.962 0-3.555-.865-3.555-1.93 0-1.067 1.593-1.932 3.555-1.932z" fill="#47FF87"/></g><mask id="mask9_44_21760" style="mask-type:luminance" maskUnits="userSpaceOnUse" x="0" y="0" width="96" height="100"><path d="M0 0h96v99.84H0V0z" fill="#fff"/></mask><g mask="url(#mask9_44_21760)"><path d="M11.201 2.105a7.805 7.805 0 01-.146 1.629" stroke="#19D672" stroke-width=".987"/><path d="M11.202 2.267a7.79 7.79 0 01-.117 1.307" stroke="#009245" stroke-width=".789"/><path d="M11.188 2.676c-.01.17-.024.334-.043.493" stroke="#19D673" stroke-width=".658" stroke-linecap="round" stroke-linejoin="round"/><path d="M11.201 1.938c.169 0 .306.075.306.167 0 .091-.137.166-.306.166-.168 0-.306-.075-.306-.166 0-.092.138-.167.306-.167z" fill="#47FF87"/></g><mask id="mask10_44_21760" style="mask-type:luminance" maskUnits="userSpaceOnUse" x="71" y="0" width="97" height="100"><path d="M71.25 0h96v99.84h-96V0z" fill="#fff"/></mask><g mask="url(#mask10_44_21760)"><path d="M84.18 78.966c.033 2.95-.6 5.932-1.347 7.456-.688 1.404-1.876 2.806-1.884 7.53" stroke="#19D672" stroke-width="9.353"/><path d="M84.138 80.528c-.152 2.399-.69 4.64-1.304 5.894-.607 1.238-1.6 2.473-1.834 5.977" stroke="#009245" stroke-width="7.483"/><path d="M83.55 84.353c-.209.826-.456 1.537-.717 2.07-.309.63-.717 1.258-1.075 2.185" stroke="#19D673" stroke-width="6.236" stroke-linecap="round" stroke-linejoin="round"/><path d="M82.798 84.923c1.6 0 2.898.705 2.898 1.574 0 .87-1.299 1.575-2.898 1.575-1.6 0-2.899-.706-2.899-1.575s1.3-1.574 2.899-1.574z" fill="#47FF87"/></g><mask id="mask11_44_21760" style="mask-type:luminance" maskUnits="userSpaceOnUse" x="71" y="0" width="97" height="100"><path d="M71.25 0h96v99.84h-96V0z" fill="#fff"/></mask><g mask="url(#mask11_44_21760)"><path d="M79.936 11.86a12.13 12.13 0 001.021 4.084c1.572 3.58 1.876 9.345.153 12.576-.264.494-.473 1.085-.63 1.747" stroke="#19D672" stroke-width="11.473"/><path d="M80.218 13.741c.169.721.412 1.459.74 2.203 1.566 3.57 1.873 9.308.168 12.545" stroke="#009245" stroke-width="9.178"/><path d="M81.723 18.235c.441 1.783.634 3.789.52 5.67" stroke="#19D673" stroke-width="7.649" stroke-linecap="round" stroke-linejoin="round"/><path d="M82.226 19.533c1.962 0 3.555.866 3.555 1.932 0 1.065-1.593 1.93-3.555 1.93-1.962 0-3.555-.865-3.555-1.93 0-1.066 1.593-1.932 3.555-1.932z" fill="#47FF87"/></g><mask id="mask12_44_21760" style="mask-type:luminance" maskUnits="userSpaceOnUse" x="50" y="0" width="97" height="100"><path d="M50.625 0h96v99.84h-96V0z" fill="#fff"/></mask><g mask="url(#mask12_44_21760)"><path d="M59.477 33.944c.003 3.187.708 6.741 1.92 8.986 1.205 2.231 1.532 6.005 1.121 9.561" stroke="#19D672" stroke-width="11.473"/><path d="M59.559 35.848c.217 2.626.864 5.277 1.838 7.081.992 1.837 1.39 4.718 1.27 7.662" stroke="#009245" stroke-width="9.178"/><path d="M60.423 40.518c.272.897.599 1.717.974 2.412.433.8.752 1.8.965 2.918" stroke="#19D673" stroke-width="7.649" stroke-linecap="round" stroke-linejoin="round"/><path d="M61.537 41.274c1.962 0 3.555.866 3.555 1.932 0 1.065-1.593 1.93-3.555 1.93-1.962 0-3.555-.865-3.555-1.93 0-1.066 1.593-1.932 3.555-1.932z" fill="#47FF87"/></g></g></g></g></g><defs><clipPath id="clip0_44_21760"><path fill="#fff" d="M0 0h96v96H0z"/></clipPath></defs></svg>