<svg width="64" height="64" fill="none" xmlns="http://www.w3.org/2000/svg"><path d="M32 64c17.674 0 32-14.326 32-32S49.674 0 32 0 0 14.326 0 32s14.326 32 32 32z" fill="#0098EA"/><path d="M42.926 17.86H21.072c-4.018 0-6.564 4.334-4.542 7.84l13.486 23.376c.88 1.526 3.086 1.526 3.966 0l13.49-23.378c2.02-3.498-.53-7.838-4.546-7.838zm-12.92 24.204l-2.938-5.684-7.088-12.676a1.237 1.237 0 011.09-1.85H30v20.214l.006-.004zm14.006-18.362l-7.084 12.68-2.938 5.682V21.85h8.934c.98 0 1.556 1.04 1.088 1.852z" fill="#fff"/></svg>