<svg width="62" height="24" fill="none" xmlns="http://www.w3.org/2000/svg"><path d="M11.98 24c6.616 0 11.98-5.372 11.98-12S18.596 0 11.98 0C5.363 0 0 5.372 0 12s5.363 12 11.98 12z" fill="#0098EA"/><path d="M16.07 6.697H7.889c-1.505 0-2.458 1.626-1.7 2.94l5.048 8.766a.857.857 0 001.485 0l5.05-8.766c.756-1.312-.198-2.94-1.702-2.94zm-4.837 9.077l-1.1-2.132L7.48 8.89a.464.464 0 01.408-.694h3.343v7.58l.002-.001zm5.244-6.886l-2.652 4.755-1.1 2.13v-7.58h3.344c.367 0 .583.39.408.695z" fill="#fff"/><path d="M31.595 18.553h2.611V9.431h3.611V6.947h-9.834V9.43h3.611v9.123zm12.498.197c3.297 0 5.99-2.698 5.99-6s-2.693-6-5.99-6c-3.313 0-5.99 2.698-5.99 6s2.677 6 5.99 6zm0-2.518c-1.893 0-3.379-1.602-3.379-3.482 0-1.88 1.486-3.482 3.38-3.482 1.876 0 3.361 1.602 3.361 3.482 0 1.88-1.485 3.482-3.362 3.482zM62 18.554V6.947h-2.612v7.16l-5.63-7.16H51.52v11.607h2.595v-7.178l5.648 7.178H62z" fill="#0098EA"/></svg>