<svg width="165" height="164" viewBox="0 0 165 164" fill="none" xmlns="http://www.w3.org/2000/svg">
<g clip-path="url(#clip0_44_19677)">
<mask id="mask0_44_19677" style="mask-type:luminance" maskUnits="userSpaceOnUse" x="0" y="0" width="165" height="164">
<path d="M164.5 0H0.5V164H164.5V0Z" fill="white"/>
</mask>
<g mask="url(#mask0_44_19677)">
<path d="M152.017 142.036C152.857 139.958 153.033 137.558 152.089 135.094L104.041 9.69705C101.762 3.74945 93.9282 -0.423596 86.5439 0.376068L14.9329 8.132C9.94631 8.6719 6.61388 11.4026 5.23683 14.8115C5.10848 15.1298 4.40389 20.073 4.21941 20.5293C3.3799 22.6068 3.18343 24.9517 4.12744 27.4154L52.1757 152.813C54.4545 158.76 62.2883 162.933 69.6726 162.134L141.284 154.378C146.27 153.838 149.623 151.162 151 147.753C151.129 147.435 151.834 142.49 152.017 142.036Z" fill="#136386"/>
<path d="M23.3054 74.1309L12.7686 46.6318" stroke="#0183B9" stroke-width="5.28743" stroke-linecap="round" stroke-linejoin="round"/>
<path d="M29.8945 91.111L26.5049 82.2646" stroke="#0183B9" stroke-width="5.28743" stroke-linecap="round" stroke-linejoin="round"/>
<path d="M36.3233 98.5054L13.4746 38.874" stroke="#136386" stroke-width="5.28743" stroke-linecap="round" stroke-linejoin="round"/>
<path d="M16.1911 11.4178L87.8021 3.66187C92.9335 3.10607 98.377 6.00619 99.9608 10.1393L148.009 135.537C149.593 139.67 146.717 143.471 141.586 144.027L69.9746 151.783C64.8432 152.338 59.3997 149.438 57.8158 145.305L9.76719 19.9078C8.18338 15.7747 11.0597 11.9736 16.1911 11.4178Z" fill="url(#paint0_linear_44_19677)"/>
<path d="M75.7104 20.154L23.1354 25.8479C21.3834 26.0378 20.401 27.3357 20.9419 28.7471L24.4389 37.8736C24.447 37.8953 24.4583 37.916 24.4672 37.9374L23.1515 40.0447C23.1051 40.1188 23.0983 40.2082 23.1319 40.2962C23.2091 40.4978 23.4746 40.6397 23.7249 40.6124L81.1656 34.391C82.9177 34.2011 83.9 32.9035 83.3591 31.4922L79.8622 22.3657C79.3212 20.9543 77.4625 19.9642 75.7104 20.154Z" fill="white"/>
<path d="M28.16 29.1059L47.196 27.0439C47.947 26.9626 48.7434 27.3872 48.9751 27.992C49.2068 28.5967 48.7863 29.1529 48.0353 29.2342L28.9993 31.2962C28.2482 31.3775 27.4519 30.9529 27.2202 30.3482C26.9885 29.7434 27.4089 29.1872 28.16 29.1059Z" fill="#B1D9FC"/>
<path d="M30.1183 34.2166L74.7617 29.3812C75.5128 29.2999 76.3095 29.7245 76.5412 30.3293C76.7728 30.934 76.3521 31.4902 75.601 31.5715L30.9575 36.4069C30.2065 36.4882 29.4097 36.0635 29.178 35.4588C28.9464 34.8541 29.3672 34.2979 30.1183 34.2166Z" fill="#D9E6EE"/>
<path d="M98.2107 36.3727L29.9987 43.7604C28.2467 43.9502 27.2643 45.2481 27.8052 46.6595L35.3588 66.3726C35.367 66.3943 35.3786 66.4147 35.3876 66.4362L34.0715 68.5434C34.0251 68.6175 34.0182 68.7072 34.0518 68.7952C34.129 68.9968 34.3946 69.1383 34.6449 69.1111L107.722 61.1966C109.475 61.0068 110.457 59.7088 109.916 58.2975L102.362 38.5844C101.821 37.173 99.9627 36.1829 98.2107 36.3727Z" fill="white"/>
<path d="M35.0233 47.019L54.0592 44.957C54.8103 44.8757 55.6067 45.3003 55.8384 45.905C56.07 46.5098 55.6496 47.066 54.8985 47.1473L35.8626 49.2093C35.1115 49.2906 34.3152 48.866 34.0835 48.2612C33.8518 47.6565 34.2722 47.1003 35.0233 47.019Z" fill="#B1D9FC"/>
<path d="M40.8979 62.3511L72.1713 58.9643C72.9224 58.883 73.7187 59.3073 73.9504 59.912C74.1821 60.5167 73.7616 61.0733 73.0106 61.1546L41.7372 64.5414C40.9861 64.6227 40.1897 64.1984 39.958 63.5937C39.7264 62.989 40.1468 62.4324 40.8979 62.3511Z" fill="#D9E6EE"/>
<path d="M36.9814 52.1294L96.1288 45.7234C96.8799 45.6421 97.6763 46.0667 97.908 46.6715C98.1396 47.2762 97.7192 47.8328 96.9681 47.9141L37.8207 54.3201C37.0696 54.4014 36.2732 53.9768 36.0416 53.372C35.8099 52.7673 36.2303 52.2107 36.9814 52.1294Z" fill="#D9E6EE"/>
<path d="M38.9394 57.2398L98.0868 50.8338C98.8379 50.7525 99.6343 51.1771 99.866 51.7818C100.098 52.3865 99.6772 52.9431 98.9261 53.0244L39.7787 59.4304C39.0276 59.5117 38.2313 59.0871 37.9996 58.4824C37.7679 57.8777 38.1884 57.3211 38.9394 57.2398Z" fill="#D9E6EE"/>
<path d="M22.4956 16.3501L53.7689 12.9633C54.52 12.882 55.3164 13.3063 55.5481 13.911C55.7798 14.5157 55.3593 15.0723 54.6082 15.1536L23.3348 18.5404C22.5838 18.6217 21.7874 18.1974 21.5557 17.5927C21.324 16.988 21.7445 16.4314 22.4956 16.3501Z" fill="#D9E6EE"/>
<path d="M20.5374 11.2398L59.7443 6.9163C60.4954 6.83502 61.2921 7.25966 61.5238 7.86437C61.7555 8.46909 61.3347 9.02533 60.5836 9.1066L21.3767 13.4301C20.6256 13.5114 19.8289 13.0867 19.5972 12.482C19.3655 11.8773 19.7863 11.3211 20.5374 11.2398Z" fill="#D9E6EE"/>
<path d="M48.6505 105.996C48.4003 106.023 48.1347 105.882 48.0575 105.68C48.0273 105.602 48.0295 105.522 48.0637 105.452L49.0771 103.399C49.0617 103.364 49.0472 103.329 49.0337 103.293L38.2632 75.1838C37.7223 73.7724 38.7046 72.4744 40.4567 72.2846L84.1936 67.5476C85.9457 67.3578 87.8048 68.348 88.3457 69.7593L99.1162 97.869C99.6571 99.2804 98.6748 100.578 96.9228 100.768L48.6505 105.996Z" fill="white"/>
<path d="M65.2259 79.9541C60.652 80.4494 58.0886 83.8375 59.5 87.5215C60.9115 91.2056 65.7638 93.7903 70.3376 93.295C74.9115 92.7997 77.4749 89.4115 76.0634 85.7275C74.652 82.0435 69.7997 79.4587 65.2259 79.9541ZM71.0725 86.5646L67.8996 89.5032C67.6759 89.7128 67.1953 89.5871 67.0836 89.2951L65.1742 84.3119C65.0625 84.0199 65.412 83.8042 65.772 83.9507L70.8543 85.9952C71.1475 86.1118 71.2567 86.3965 71.0725 86.5646Z" fill="#A0D0FA"/>
<path d="M114.379 102.836L56.4727 109.213C54.7799 109.39 53.8298 110.631 54.3551 111.981L61.6917 130.85C61.7006 130.871 61.7099 130.889 61.7189 130.91L60.4475 132.924C60.4024 132.996 60.3973 133.08 60.4295 133.164C60.5061 133.357 60.7608 133.492 61.0026 133.467L123.621 126.591C125.315 126.412 126.264 125.174 125.739 123.823L118.402 104.955C117.877 103.604 116.076 102.656 114.379 102.836Z" stroke="white" stroke-width="0.8043" stroke-linecap="round" stroke-linejoin="round" stroke-dasharray="3.52 3.52"/>
<path d="M87.8018 3.66183L16.1908 11.4178C11.0594 11.9735 8.18343 15.7747 9.76724 19.9079L14.3832 31.9545L104.577 22.186L99.9609 10.1393C98.3771 6.0062 92.9332 3.10604 87.8018 3.66183Z" fill="#EDE0EE"/>
<path d="M148.009 135.537L146.191 130.791L55.9971 140.56L57.8155 145.305C59.3993 149.439 64.8428 152.339 69.9742 151.783L141.585 144.027C146.717 143.471 149.593 139.67 148.009 135.537Z" fill="#E4EEF9"/>
<path d="M59.9912 12.1184C60.3673 13.3791 59.2596 14.5618 57.5168 14.7597C55.774 14.9575 54.0563 14.0961 53.6802 12.8354C53.3041 11.5747 54.4117 10.3919 56.1546 10.1941C57.8974 9.99623 59.6151 10.8577 59.9912 12.1184Z" fill="black"/>
<path d="M152.089 135.095L104.04 9.69769C101.761 3.75006 93.9278 -0.423281 86.5435 0.376382L14.9326 8.13231C7.54827 8.93198 3.40987 14.4022 5.68869 20.3498L53.7374 145.747C56.0166 151.694 63.85 155.868 71.2343 155.068L142.845 147.312C150.23 146.513 154.368 141.042 152.089 135.095ZM141.586 144.027L69.9751 151.783C64.8437 152.338 59.4002 149.438 57.8164 145.305L9.76775 19.9078C8.18394 15.7747 11.0603 11.9736 16.1917 11.4178L87.8026 3.66186C92.934 3.10607 98.3776 6.00619 99.9614 10.1393L148.01 135.537C149.594 139.67 146.717 143.471 141.586 144.027Z" fill="black"/>
<g opacity="0.15">
<path d="M123.871 55.6358C123.871 55.6358 135.166 87.0804 138.735 100.922C130.264 104.845 114.652 106.397 103.954 104.599C90.1657 102.28 78.4521 94.998 78.9321 82.2084C79.4531 68.326 87.8942 57.0935 96.1723 53.7881" fill="black"/>
</g>
<path d="M132.372 52.8116C138.369 58.1981 155.334 67.9813 147.536 87.7773C139.892 107.184 75.7882 104.871 77.0049 77.7775C77.5921 64.701 86.5523 54.3132 95.3194 51.3955" fill="#FFD527"/>
<path d="M132.372 52.8116C138.369 58.1981 155.334 67.9813 147.536 87.7773C139.892 107.184 75.7882 104.871 77.0049 77.7775C77.5921 64.701 86.5523 54.3132 95.3194 51.3955" stroke="#FA9016" stroke-width="3.20216" stroke-linecap="round" stroke-linejoin="round"/>
<path d="M99.7569 93.887C106.187 96.6265 117.534 96.1689 124.348 95.1409" stroke="#FCEE21" stroke-width="3.20396" stroke-linecap="round" stroke-linejoin="round"/>
<path d="M148.691 73.9097C150.288 85.107 141.361 92.5492 138.394 91.2948C133.278 89.253 139.992 86.6848 138.243 73.942" fill="#FFD527"/>
<path d="M148.691 73.9097C150.288 85.107 141.361 92.5492 138.394 91.2948C133.278 89.253 139.992 86.6848 138.243 73.942" stroke="#FA9016" stroke-width="3.20407" stroke-linecap="round" stroke-linejoin="round"/>
<path d="M140.086 85.8126C141.234 83.5617 141.269 79.6637 141.121 75.9082" stroke="#FCEE21" stroke-width="2.56325" stroke-linecap="round" stroke-linejoin="round"/>
<path d="M79.0287 67.9588C73.2179 73.5429 68.9229 76.865 67.5573 80.9143C66.1917 84.9637 75.359 87.8536 81.0609 81.6848" fill="#FFD527"/>
<path d="M79.0287 67.9588C73.2179 73.5429 68.9229 76.865 67.5573 80.9143C66.1917 84.9637 75.359 87.8536 81.0609 81.6848" stroke="#FA9016" stroke-width="3.20392" stroke-linecap="round" stroke-linejoin="round"/>
<path d="M138.963 68.2921C145.353 63.7439 149.236 57.1381 149.583 49.1818C150.321 32.2797 134.959 14.8481 115.113 13.8698C95.2672 12.8916 78.453 28.737 77.7156 45.6392C77.3674 53.6171 80.6788 60.5472 86.5695 65.6626" fill="#FFD527"/>
<path d="M138.963 68.2921C145.353 63.7439 149.236 57.1381 149.583 49.1818C150.321 32.2797 134.959 14.8481 115.113 13.8698C95.2672 12.8916 78.453 28.737 77.7156 45.6392C77.3674 53.6171 80.6788 60.5472 86.5695 65.6626" stroke="#FA9016" stroke-width="3.20216" stroke-linecap="round" stroke-linejoin="round"/>
<path d="M126.801 23.1674C124.129 21.9456 121.32 21.1204 118.479 20.668C112.315 19.6866 106.003 20.4633 100.625 22.7625" stroke="white" stroke-width="3.20396" stroke-linecap="round" stroke-linejoin="round" stroke-dasharray="15.06 6.41"/>
<path d="M123.511 58.7614C113.591 58.8017 112.757 51.1162 110.913 51.3372C108.89 51.5797 106.905 57.3617 99.543 57.8229C97.3476 57.9604 96.2879 59.3593 96.2421 60.9217C96.1984 62.415 97.0791 64.0375 98.7737 64.772C102.833 66.5315 108.389 66.9251 113.141 66.7751C117.527 66.6367 121.229 66.0358 122.442 65.6185C124.619 64.8701 126.643 63.8953 127.055 61.804C127.252 60.8032 126.155 58.7507 123.511 58.7614Z" fill="#FF5D1F"/>
<path d="M123.511 58.7614C113.591 58.8017 112.757 51.1162 110.913 51.3372C108.89 51.5797 106.905 57.3617 99.543 57.8229C97.3476 57.9604 96.2879 59.3593 96.2421 60.9217C96.1984 62.415 97.0791 64.0375 98.7737 64.772C102.833 66.5315 108.389 66.9251 113.141 66.7751C117.527 66.6367 121.229 66.0358 122.442 65.6185C124.619 64.8701 126.643 63.8953 127.055 61.804C127.252 60.8032 126.155 58.7507 123.511 58.7614Z" stroke="#CF3502" stroke-width="2.88213" stroke-linejoin="round"/>
<g opacity="0.33">
<path d="M105.81 58.9076C107.42 58.1457 109.323 56.6504 110.396 55.2452" stroke="white" stroke-width="2.88213" stroke-linecap="round" stroke-linejoin="round"/>
</g>
<path d="M120.683 62.4904C116.242 62.9448 109.36 63.665 100.495 61.7812C103.136 63.0481 110.891 63.2486 113.457 63.1557C116.024 63.0628 120.683 62.4904 120.683 62.4904Z" stroke="#7D0909" stroke-width="2.88199" stroke-linecap="round" stroke-linejoin="round"/>
<path d="M120.683 62.4904C116.242 62.9448 109.36 63.665 100.495 61.7812C103.136 63.0481 110.891 63.2486 113.457 63.1557C116.024 63.0628 120.683 62.4904 120.683 62.4904Z" fill="#7D0909"/>
<path d="M96.2348 42.9572C93.1098 42.626 90.2848 45.1087 89.9249 48.5022C89.565 51.8956 91.8061 54.9148 94.9311 55.246C98.0561 55.5772 100.881 53.0944 101.241 49.701C101.601 46.3075 99.3598 43.2883 96.2348 42.9572Z" fill="black"/>
<path d="M98.9946 45.7901C99.3459 46.7829 98.953 47.7899 98.1168 48.0392C97.2806 48.2886 96.3181 47.6862 95.9668 46.6933C95.6154 45.7005 96.0084 44.6936 96.8445 44.4442C97.6807 44.1949 98.6432 44.7973 98.9946 45.7901Z" fill="white"/>
<path d="M127.163 43.2062C130.296 43.0164 133.048 45.6251 133.311 49.0326C133.575 52.4402 131.249 55.3562 128.117 55.5461C124.984 55.7359 122.232 53.1272 121.968 49.7196C121.705 46.3121 124.031 43.3961 127.163 43.2062Z" fill="black"/>
<path d="M131.423 47.3012C131.555 48.3395 130.953 49.2463 130.079 49.3267C129.205 49.4071 128.391 48.6309 128.259 47.5926C128.128 46.5543 128.729 45.6474 129.603 45.567C130.477 45.4867 131.292 46.2629 131.423 47.3012Z" fill="white"/>
<path d="M131.77 64.7012L120.014 64.2186L99.1216 63.3608L81.339 62.6308L71.4023 62.2228C69.3436 62.1383 67.7091 63.5598 67.7518 65.3971L68.3483 91.0632C68.349 91.0913 68.3534 91.1189 68.3549 91.1469L66.0164 93.5048C65.9341 93.588 65.8902 93.6969 65.8927 93.8115C65.8986 94.074 66.1422 94.2964 66.4364 94.3087L84.2124 95.0382L100.022 95.6873L120.217 96.5163L132.521 97.0215C134.58 97.1059 136.214 95.6848 136.172 93.8474L135.575 68.1814C135.532 66.344 133.829 64.7856 131.77 64.7012Z" fill="white"/>
<path d="M131.77 64.7012L120.014 64.2186L99.1216 63.3608L81.339 62.6308L71.4023 62.2228C69.3436 62.1383 67.7091 63.5598 67.7518 65.3971L68.3483 91.0632C68.349 91.0913 68.3534 91.1189 68.3549 91.1469L66.0164 93.5048C65.9341 93.588 65.8902 93.6969 65.8927 93.8115C65.8986 94.074 66.1422 94.2964 66.4364 94.3087L84.2124 95.0382L100.022 95.6873L120.217 96.5163L132.521 97.0215C134.58 97.1059 136.214 95.6848 136.172 93.8474L135.575 68.1814C135.532 66.344 133.829 64.7856 131.77 64.7012Z" stroke="white" stroke-width="0.802161" stroke-linecap="round" stroke-linejoin="round"/>
<path d="M75.7736 67.15L83.1054 67.4667L93.8506 67.931C94.7328 67.9672 95.4632 68.6351 95.4814 69.4225C95.4996 70.2099 94.799 70.8191 93.9167 70.7829L84.9142 70.3938L75.8399 70.0016C74.9576 69.9653 74.2273 69.2974 74.2091 68.5101C74.1908 67.7227 74.8914 67.1138 75.7736 67.15Z" fill="#B1D9FC"/>
<path d="M75.9284 73.8048L80.9802 74.0168L94.4175 74.5807L117.263 75.4426L121.354 75.7104C122.236 75.7466 122.967 76.4145 122.985 77.2019C123.003 77.9892 122.303 78.5985 121.42 78.5622L117.237 78.2905L94.1338 77.4177L81.0947 76.8707L75.9946 76.6567C75.1124 76.6205 74.382 75.9526 74.3638 75.1652C74.3456 74.3778 75.0462 73.7686 75.9284 73.8048Z" fill="#D9E6EE"/>
<path d="M111.202 90.7713L103.686 90.4428L87.5369 89.7368L76.896 89.2717C75.7348 89.2242 74.7744 88.3452 74.7501 87.3089L74.6564 83.2741C74.6321 82.2378 75.5539 81.4363 76.7151 81.4837L87.7858 81.9678L103.476 82.654L111.021 82.9837C112.182 83.0311 113.143 83.9099 113.167 84.9461L113.26 88.9812C113.285 90.0175 112.363 90.8188 111.202 90.7713Z" fill="white"/>
<path d="M111.202 90.7713L103.686 90.4428L87.5369 89.7368L76.896 89.2717C75.7348 89.2242 74.7744 88.3452 74.7501 87.3089L74.6564 83.2741C74.6321 82.2378 75.5539 81.4363 76.7151 81.4837L87.7858 81.9678L103.476 82.654L111.021 82.9837C112.182 83.0311 113.143 83.9099 113.167 84.9461L113.26 88.9812C113.285 90.0175 112.363 90.8188 111.202 90.7713Z" stroke="#A0D0FA" stroke-width="1.43556" stroke-linecap="round" stroke-linejoin="round"/>
<path d="M100.514 70.0916C100.511 69.9518 100.444 69.8426 100.313 69.7639C100.182 69.6851 99.9663 69.6123 99.6655 69.5439C99.3646 69.4755 99.1136 69.394 98.9114 69.2997C98.4675 69.0921 98.2418 68.8085 98.2332 68.4489C98.226 68.1474 98.3632 67.9012 98.6431 67.7103C98.923 67.5194 99.2826 67.433 99.722 67.451C100.19 67.4702 100.571 67.589 100.864 67.8078C101.157 68.0265 101.308 68.3003 101.316 68.6301L100.436 68.5937C100.432 68.4427 100.367 68.3154 100.239 68.2099C100.111 68.1044 99.943 68.0475 99.7356 68.0389C99.5425 68.0308 99.3859 68.0646 99.2657 68.1393C99.1454 68.214 99.0873 68.3182 99.0906 68.4517C99.0935 68.5725 99.1519 68.6683 99.267 68.7398C99.3822 68.8114 99.613 68.8878 99.9599 68.9698C100.307 69.0517 100.579 69.1438 100.778 69.2455C100.977 69.3472 101.126 69.4661 101.224 69.6013C101.323 69.7365 101.375 69.8978 101.379 70.0853C101.386 70.4 101.245 70.6485 100.958 70.8316C100.671 71.0147 100.29 71.0964 99.8173 71.0769C99.4963 71.064 99.2096 71.0003 98.9558 70.8867C98.702 70.773 98.503 70.6224 98.359 70.4361C98.2149 70.2497 98.1403 70.0517 98.1354 69.8428L98.9896 69.8776C99.0062 70.0636 99.0879 70.2093 99.2351 70.3152C99.3823 70.4211 99.5755 70.4796 99.8145 70.4895C100.046 70.499 100.221 70.4664 100.34 70.3928C100.459 70.3191 100.517 70.2187 100.514 70.0916Z" fill="#BACED8"/>
<path d="M105.692 69.8353C105.705 70.376 105.577 70.8014 105.31 71.1123C105.042 71.4233 104.677 71.5689 104.213 71.5501C103.784 71.5328 103.437 71.3927 103.173 71.1301L103.211 72.7876L102.331 72.7516L102.219 67.9111L103.03 67.9443L103.074 68.3009C103.325 68.0317 103.674 67.9059 104.118 67.9243C104.596 67.9437 104.974 68.1179 105.253 68.447C105.532 68.7762 105.678 69.2226 105.691 69.7871L105.692 69.8353ZM105.013 69.6909C105.005 69.3421 104.921 69.0622 104.76 68.851C104.6 68.6398 104.375 68.5286 104.085 68.5165C103.725 68.5017 103.47 68.6237 103.319 68.8823L103.356 70.4333C103.521 70.7111 103.785 70.8581 104.147 70.873C104.427 70.8844 104.644 70.7924 104.797 70.5976C104.951 70.4027 105.023 70.1 105.013 69.6909Z" fill="#BACED8"/>
<path d="M106.015 69.3659C106.006 69.0234 106.076 68.7185 106.221 68.4498C106.367 68.1813 106.576 67.9787 106.847 67.8427C107.119 67.7067 107.433 67.6456 107.79 67.6602C108.319 67.6819 108.752 67.8514 109.088 68.1688C109.425 68.4861 109.612 68.8956 109.651 69.3988L109.659 69.5835C109.667 69.9284 109.6 70.2334 109.457 70.4985C109.315 70.7637 109.108 70.9652 108.835 71.1023C108.562 71.2394 108.244 71.3008 107.882 71.286C107.329 71.2631 106.883 71.0811 106.544 70.7389C106.204 70.3967 106.028 69.9518 106.016 69.4048L106.015 69.3659ZM106.896 69.4701C106.905 69.83 106.994 70.1148 107.165 70.3251C107.337 70.5353 107.571 70.6471 107.868 70.6593C108.165 70.6714 108.394 70.577 108.554 70.3772C108.714 70.1775 108.79 69.8781 108.78 69.4792C108.772 69.1261 108.681 68.8428 108.506 68.6291C108.331 68.4153 108.097 68.3019 107.805 68.2901C107.518 68.2782 107.293 68.3706 107.128 68.5673C106.964 68.764 106.887 69.0653 106.896 69.4701Z" fill="#BACED8"/>
<path d="M110.911 68.02L110.717 68.4293C111 68.1288 111.604 67.9838 112.075 68.0032C112.891 68.0368 113.316 68.4699 113.35 69.3044L113.404 71.6152L112.524 71.5791L112.471 69.3137C112.466 69.0921 112.409 68.925 112.299 68.8142C112.189 68.7035 112.012 68.6427 111.768 68.6329C111.413 68.6185 111.152 68.7512 110.985 69.0304L111.043 71.5183L110.163 71.4824L110.082 67.9861L110.911 68.02Z" fill="#BACED8"/>
<path d="M116.306 70.9202C116.303 70.7804 116.235 70.6711 116.104 70.5923C115.974 70.5136 115.758 70.4405 115.458 70.372C115.157 70.3036 114.906 70.2226 114.703 70.1283C114.259 69.9207 114.034 69.6366 114.025 69.2771C114.018 68.9755 114.155 68.7292 114.435 68.5383C114.715 68.3474 115.075 68.2611 115.514 68.2792C115.982 68.2984 116.363 68.4172 116.656 68.6359C116.949 68.8547 117.1 69.1285 117.108 69.4583L116.228 69.4223C116.224 69.2718 116.159 69.1436 116.031 69.038C115.903 68.9325 115.735 68.8757 115.528 68.8671C115.335 68.859 115.178 68.8928 115.058 68.9675C114.938 69.0422 114.879 69.1462 114.882 69.2797C114.885 69.4005 114.944 69.4964 115.059 69.568C115.174 69.6395 115.405 69.7164 115.752 69.7984C116.099 69.8803 116.371 69.9724 116.57 70.0741C116.769 70.1758 116.918 70.2942 117.016 70.4294C117.115 70.5646 117.166 70.7263 117.17 70.9137C117.178 71.2284 117.037 71.4767 116.75 71.6598C116.463 71.8429 116.082 71.9249 115.609 71.9053C115.288 71.8924 115.001 71.8288 114.747 71.7151C114.493 71.6015 114.295 71.4506 114.151 71.2642C114.007 71.0779 113.932 70.8798 113.927 70.6708L114.782 70.7057C114.798 70.8918 114.88 71.0379 115.027 71.1438C115.174 71.2497 115.367 71.3076 115.606 71.3176C115.838 71.327 116.013 71.2948 116.132 71.2212C116.251 71.1476 116.309 71.0473 116.306 70.9202Z" fill="#BACED8"/>
<path d="M118.028 70.2273C118.02 69.8848 118.089 69.5795 118.235 69.3108C118.381 69.0423 118.589 68.8402 118.861 68.7042C119.133 68.5681 119.447 68.5072 119.805 68.5218C120.333 68.5435 120.765 68.7125 121.102 69.0298C121.439 69.3471 121.626 69.7572 121.665 70.2604L121.672 70.4445C121.681 70.7894 121.613 71.0948 121.471 71.36C121.329 71.6251 121.121 71.8266 120.848 71.9638C120.575 72.1009 120.258 72.1624 119.896 72.1476C119.343 72.1247 118.897 71.9421 118.558 71.5999C118.218 71.2577 118.042 70.8133 118.029 70.2663L118.028 70.2273ZM118.91 70.3315C118.918 70.6915 119.008 70.9763 119.179 71.1865C119.35 71.3968 119.585 71.5085 119.881 71.5207C120.178 71.5329 120.407 71.4384 120.568 71.2387C120.728 71.0389 120.804 70.7397 120.795 70.3408C120.786 69.9877 120.695 69.7038 120.52 69.4901C120.345 69.2764 120.111 69.1634 119.819 69.1515C119.532 69.1396 119.306 69.2321 119.142 69.4288C118.977 69.6255 118.9 69.9268 118.91 70.3315Z" fill="#BACED8"/>
<path d="M124.535 69.4151C124.418 69.3931 124.299 69.3799 124.175 69.3748C123.773 69.3585 123.504 69.4848 123.37 69.7547L123.426 72.1461L122.546 72.1097L122.465 68.6136L123.305 68.6484L123.336 69.04C123.541 68.745 123.832 68.6052 124.209 68.6207C124.334 68.6258 124.438 68.6449 124.521 68.6786L124.535 69.4151Z" fill="#BACED8"/>
<path d="M126.721 72.4275C126.163 72.4047 125.707 72.2293 125.354 71.9016C125 71.5738 124.817 71.1494 124.805 70.6283L124.803 70.5313C124.795 70.1821 124.863 69.8735 125.007 69.605C125.151 69.3365 125.358 69.1316 125.628 68.9896C125.897 68.8476 126.199 68.7843 126.535 68.7978C127.068 68.8197 127.484 68.9882 127.782 69.3041C128.08 69.6196 128.235 70.0553 128.248 70.6111L128.256 70.9277L125.696 70.823C125.729 71.1127 125.842 71.3455 126.036 71.5211C126.229 71.6968 126.469 71.7908 126.756 71.8027C127.16 71.8192 127.484 71.687 127.731 71.4067L128.215 71.83C128.063 72.0324 127.857 72.1864 127.598 72.2909C127.339 72.3955 127.047 72.4408 126.721 72.4275ZM126.546 69.4276C126.304 69.4178 126.111 69.4849 125.967 69.6298C125.822 69.7747 125.731 69.9809 125.697 70.2483L127.373 70.317L127.372 70.259C127.346 69.9956 127.263 69.7933 127.122 69.6529C126.982 69.5125 126.79 69.4374 126.546 69.4276Z" fill="#BACED8"/>
<path d="M128.767 70.6743C128.754 70.1356 128.885 69.7094 129.157 69.3945C129.429 69.0796 129.801 68.9315 130.272 68.951C130.687 68.9678 131.025 69.1112 131.287 69.3801L131.246 67.5902L132.126 67.6261L132.241 72.5893L131.444 72.5567L131.392 72.193C131.135 72.4667 130.788 72.5943 130.349 72.5762C129.891 72.5573 129.515 72.3775 129.224 72.0363C128.933 71.6951 128.78 71.2408 128.767 70.6743ZM129.649 70.7785C129.657 71.134 129.74 71.4143 129.898 71.6198C130.055 71.8254 130.276 71.934 130.558 71.9455C130.918 71.9603 131.178 71.8282 131.338 71.5485L131.303 70.0557C131.134 69.7687 130.871 69.618 130.511 69.6033C130.226 69.5915 130.009 69.6828 129.859 69.8781C129.709 70.0735 129.639 70.3733 129.649 70.7785Z" fill="#BACED8"/>
<path d="M77.2656 73.3896C74.6882 74.8297 72.7576 78.5301 71.2707 79.7619" stroke="white" stroke-width="2.56313" stroke-linecap="round" stroke-linejoin="round"/>
<path d="M79.8856 43.1254C80.1175 42.8617 108.104 42.5848 108.075 43.2753C108.059 43.6078 103.497 57.6946 102.745 57.8759C102.384 57.9629 85.7867 58.3287 85.3517 57.751C85.1659 57.5049 80.7904 46.997 79.9848 43.938C79.8642 43.4853 79.8246 43.195 79.8856 43.1254ZM113.828 42.7076C114.064 42.4475 142.056 42.4958 142.014 43.1845C142.013 43.2247 141.942 43.4606 141.819 43.8446C140.913 46.6769 137.134 57.5682 136.468 57.7201C136.105 57.8034 119.503 57.9755 119.076 57.3941C118.867 57.108 113.342 43.2444 113.828 42.7076Z" fill="black"/>
<path d="M79.8845 43.1258C80.117 42.8619 108.103 42.5852 108.073 43.275C108.059 43.6068 103.498 57.6937 102.745 57.8758C102.384 57.9631 85.7859 58.328 85.3508 57.7503C85.1656 57.5044 80.7907 46.9964 79.9837 43.9369C79.8645 43.485 79.8231 43.1956 79.8845 43.1258Z" stroke="black" stroke-width="2.33286" stroke-linecap="round" stroke-linejoin="round"/>
<path d="M113.827 42.7084C114.064 42.4474 142.055 42.4958 142.015 43.1851C142.013 43.2248 141.942 43.4608 141.819 43.8455C140.911 46.6764 137.134 57.5684 136.469 57.7208C136.106 57.804 119.502 57.9759 119.076 57.3932C118.867 57.1087 113.341 43.2453 113.827 42.7084Z" stroke="black" stroke-width="2.33286" stroke-linecap="round" stroke-linejoin="round"/>
<path d="M106.687 47.7134C107.664 45.1866 108.447 43.6489 110.745 43.6557C113.042 43.6626 114.158 44.2694 115.095 47.3392" stroke="black" stroke-width="3.88806" stroke-linecap="round" stroke-linejoin="round"/>
<path d="M79.9754 42.8421C80.2097 42.5793 108.163 42.4726 108.129 43.1631C108.112 43.4951 103.447 57.571 102.694 57.7487C102.332 57.8339 85.752 58.0981 85.3218 57.5171C85.1119 57.2334 79.4938 43.3824 79.9754 42.8421Z" fill="url(#paint1_linear_44_19677)"/>
<path d="M113.88 42.6304C114.118 42.3705 142.075 42.5893 142.029 43.2792C142.008 43.6111 137.133 57.6296 136.378 57.7983C136.015 57.8794 119.43 57.9504 119.008 57.3645C118.803 57.0784 113.39 43.165 113.88 42.6304Z" fill="url(#paint2_linear_44_19677)"/>
<path d="M79.912 43.0332C80.1445 42.7692 108.13 42.4925 108.101 43.1824C108.087 43.5141 103.525 57.6011 102.773 57.7832C102.411 57.8705 85.8134 58.2353 85.3782 57.6576C85.1658 57.3755 79.434 43.5757 79.912 43.0332Z" stroke="black" stroke-width="2.33286" stroke-linecap="round" stroke-linejoin="round"/>
<path d="M113.855 42.6154C114.091 42.3543 142.082 42.4028 142.042 43.0921C142.023 43.4237 137.252 57.4547 136.496 57.6278C136.133 57.7109 119.53 57.8829 119.103 57.3002C118.895 57.0157 113.368 43.1523 113.855 42.6154Z" stroke="black" stroke-width="2.33286" stroke-linecap="round" stroke-linejoin="round"/>
<path d="M80.1605 118.338L77.2548 120.118C76.9526 120.303 76.5575 120.208 76.3724 119.906C76.2821 119.759 76.2551 119.581 76.2978 119.413L76.7475 117.643C76.91 117.004 77.3475 116.469 77.9419 116.184L81.1119 114.662C81.2597 114.591 81.3222 114.413 81.2511 114.266C81.1937 114.146 81.0635 114.079 80.9327 114.102L77.4041 114.713C76.6868 114.837 75.951 114.639 75.3931 114.171L74.2784 113.237C74.0068 113.009 73.9712 112.605 74.1987 112.333C74.3094 112.201 74.4686 112.119 74.6405 112.106L78.0462 111.839C78.2869 111.82 78.4967 111.668 78.5891 111.445L79.9031 108.273C80.0387 107.946 80.4139 107.79 80.7412 107.926C80.8984 107.991 81.0236 108.116 81.0886 108.273L82.4026 111.445C82.495 111.668 82.7045 111.82 82.9452 111.839L86.3697 112.107C86.7229 112.135 86.9869 112.444 86.9593 112.797C86.9461 112.967 86.8658 113.124 86.7361 113.235L84.1241 115.462C83.9403 115.618 83.86 115.865 83.9167 116.1L84.7195 119.436C84.8025 119.78 84.5905 120.127 84.246 120.209C84.0804 120.249 83.9057 120.222 83.7605 120.133L80.8309 118.338C80.6252 118.212 80.3662 118.212 80.1605 118.338Z" fill="#FFF842"/>
<path d="M86.824 102.704L85.0328 103.801C84.8466 103.916 84.6031 103.857 84.489 103.671C84.4332 103.58 84.4166 103.47 84.4429 103.367L84.7201 102.275C84.8203 101.882 85.09 101.552 85.4564 101.376L87.4104 100.438C87.5015 100.394 87.54 100.285 87.4962 100.194C87.4608 100.12 87.3805 100.079 87.2999 100.093L85.1249 100.469C84.6827 100.546 84.2291 100.424 83.8853 100.136L83.1982 99.5597C83.0307 99.4195 83.0088 99.1701 83.1491 99.0027C83.2173 98.9213 83.3154 98.8707 83.4214 98.8624L85.5207 98.6981C85.6691 98.6865 85.7983 98.5926 85.8553 98.4552L86.6653 96.5C86.7488 96.2983 86.9802 96.2025 87.1819 96.2861C87.2788 96.3261 87.356 96.4031 87.396 96.5L88.206 98.4552C88.2629 98.5926 88.3921 98.6865 88.5404 98.6981L90.6513 98.8632C90.869 98.8803 91.0318 99.0707 91.0147 99.2884C91.0066 99.3932 90.9571 99.4902 90.8772 99.5584L89.2671 100.931C89.1538 101.028 89.1044 101.18 89.1393 101.325L89.6341 103.381C89.6853 103.593 89.5546 103.807 89.3423 103.858C89.2402 103.882 89.1325 103.865 89.043 103.81L87.2372 102.704C87.1104 102.627 86.9507 102.627 86.824 102.704Z" fill="#FFF842"/>
<path d="M71.6873 101.164L71.5616 101.241C71.5485 101.249 71.5314 101.245 71.5234 101.232C71.5195 101.226 71.5183 101.218 71.5202 101.211L71.5396 101.134C71.5467 101.107 71.5656 101.084 71.5913 101.071L71.7284 101.005C71.7348 101.002 71.7375 100.995 71.7344 100.988C71.732 100.983 71.7263 100.98 71.7207 100.981L71.568 101.008C71.537 101.013 71.5052 101.004 71.4811 100.984L71.4328 100.944C71.4211 100.934 71.4196 100.916 71.4294 100.905C71.4342 100.899 71.4411 100.895 71.4485 100.895L71.5958 100.883C71.6062 100.882 71.6153 100.876 71.6193 100.866L71.6761 100.729C71.682 100.715 71.6982 100.708 71.7124 100.714C71.7192 100.717 71.7246 100.722 71.7274 100.729L71.7843 100.866C71.7882 100.876 71.7973 100.882 71.8077 100.883L71.9558 100.895C71.9711 100.896 71.9825 100.909 71.9814 100.925C71.9808 100.932 71.9773 100.939 71.9717 100.944L71.8587 101.04C71.8508 101.047 71.8473 101.057 71.8497 101.068L71.8845 101.212C71.8881 101.227 71.8789 101.242 71.864 101.245C71.8568 101.247 71.8493 101.246 71.843 101.242L71.7163 101.164C71.7074 101.159 71.6962 101.159 71.6873 101.164Z" fill="#FFF842"/>
<path d="M116.63 107.08L114.211 108.562C113.96 108.716 113.631 108.637 113.477 108.385C113.402 108.262 113.379 108.114 113.415 107.975L113.789 106.501C113.924 105.969 114.288 105.524 114.783 105.287L117.422 104.02C117.545 103.961 117.597 103.813 117.537 103.69C117.49 103.591 117.381 103.535 117.272 103.554L114.336 104.062C113.739 104.166 113.126 104.001 112.662 103.612L111.734 102.834C111.508 102.645 111.478 102.308 111.668 102.082C111.76 101.972 111.892 101.904 112.035 101.893L114.87 101.671C115.07 101.655 115.245 101.528 115.322 101.343L116.415 98.7027C116.528 98.4303 116.841 98.301 117.113 98.4138C117.244 98.4679 117.348 98.5719 117.402 98.7027L118.496 101.343C118.573 101.528 118.747 101.655 118.947 101.671L121.798 101.894C122.092 101.917 122.311 102.174 122.288 102.468C122.277 102.609 122.211 102.74 122.103 102.832L119.929 104.686C119.776 104.816 119.709 105.022 119.756 105.217L120.424 107.993C120.493 108.28 120.317 108.569 120.03 108.637C119.892 108.671 119.747 108.648 119.626 108.574L117.188 107.08C117.017 106.975 116.801 106.975 116.63 107.08Z" fill="#FFF842"/>
<path d="M95.076 107.107L92.1561 108.895C91.8525 109.081 91.4555 108.986 91.2695 108.682C91.1786 108.534 91.1516 108.356 91.1945 108.187L91.6463 106.408C91.8096 105.766 92.2492 105.229 92.8465 104.942L96.032 103.412C96.1805 103.341 96.2432 103.163 96.1718 103.014C96.1141 102.894 95.9832 102.827 95.8518 102.85L92.3061 103.463C91.5853 103.588 90.8459 103.389 90.2854 102.919L89.1653 101.981C88.8923 101.752 88.8566 101.346 89.0852 101.073C89.1964 100.94 89.3564 100.857 89.5291 100.844L92.9514 100.576C93.1932 100.557 93.404 100.404 93.4969 100.18L94.8172 96.9928C94.9535 96.6639 95.3306 96.5077 95.6595 96.644C95.8174 96.7093 95.9432 96.8348 96.0085 96.9928L97.3289 100.18C97.4217 100.404 97.6322 100.557 97.8741 100.576L101.315 100.845C101.67 100.873 101.935 101.183 101.908 101.538C101.894 101.709 101.814 101.867 101.683 101.979L99.0587 104.216C98.874 104.374 98.7934 104.622 98.8503 104.858L99.6571 108.209C99.7405 108.556 99.5274 108.904 99.1812 108.987C99.0149 109.027 98.8393 108.999 98.6934 108.91L95.7495 107.107C95.5429 106.98 95.2826 106.98 95.076 107.107Z" fill="#FFF842"/>
<path d="M107.434 129.721L105.877 130.675C105.715 130.774 105.503 130.723 105.404 130.561C105.356 130.482 105.341 130.387 105.364 130.297L105.605 129.348C105.692 129.006 105.926 128.72 106.245 128.567L107.943 127.751C108.023 127.713 108.056 127.618 108.018 127.539C107.987 127.475 107.917 127.439 107.847 127.451L105.957 127.778C105.573 127.845 105.178 127.739 104.879 127.488L104.282 126.988C104.137 126.866 104.118 126.649 104.24 126.504C104.299 126.433 104.384 126.389 104.476 126.382L106.301 126.239C106.43 126.229 106.542 126.147 106.592 126.028L107.296 124.328C107.368 124.153 107.569 124.07 107.745 124.142C107.829 124.177 107.896 124.244 107.931 124.328L108.635 126.028C108.684 126.147 108.797 126.229 108.926 126.239L110.76 126.382C110.949 126.397 111.091 126.563 111.076 126.752C111.069 126.843 111.026 126.927 110.957 126.987L109.557 128.18C109.459 128.264 109.416 128.396 109.446 128.522L109.876 130.309C109.921 130.493 109.807 130.679 109.622 130.723C109.534 130.745 109.44 130.73 109.362 130.682L107.793 129.721C107.683 129.653 107.544 129.653 107.434 129.721Z" fill="#FFF842"/>
<path d="M120.177 109.924L119.036 110.623C118.918 110.696 118.763 110.658 118.69 110.54C118.655 110.482 118.644 110.412 118.661 110.346L118.837 109.652C118.901 109.401 119.073 109.191 119.306 109.079L120.55 108.482C120.608 108.454 120.633 108.384 120.605 108.326C120.582 108.279 120.531 108.253 120.48 108.262L119.095 108.502C118.814 108.55 118.525 108.473 118.306 108.289L117.868 107.923C117.762 107.833 117.748 107.675 117.837 107.568C117.881 107.516 117.943 107.484 118.011 107.479L119.347 107.374C119.441 107.367 119.524 107.307 119.56 107.219L120.076 105.975C120.129 105.846 120.276 105.785 120.405 105.839C120.466 105.864 120.515 105.913 120.541 105.975L121.057 107.219C121.093 107.307 121.175 107.367 121.269 107.374L122.613 107.479C122.752 107.49 122.856 107.611 122.845 107.75C122.839 107.817 122.808 107.878 122.757 107.922L121.732 108.796C121.66 108.857 121.628 108.954 121.651 109.046L121.966 110.355C121.998 110.49 121.915 110.626 121.78 110.659C121.715 110.674 121.646 110.664 121.589 110.629L120.44 109.924C120.359 109.875 120.257 109.875 120.177 109.924Z" fill="#FFF842"/>
</g>
</g>
<defs>
<linearGradient id="paint0_linear_44_19677" x1="15.7222" y1="36.6713" x2="133.321" y2="134.252" gradientUnits="userSpaceOnUse">
<stop stop-color="#F084CA"/>
<stop offset="0.21" stop-color="#F084CA"/>
<stop offset="0.41" stop-color="#F084CA"/>
<stop offset="0.71" stop-color="#9587E4"/>
<stop offset="1" stop-color="#3A8BFF"/>
</linearGradient>
<linearGradient id="paint1_linear_44_19677" x1="68.5109" y1="46.5542" x2="66.0267" y2="88.8795" gradientUnits="userSpaceOnUse">
<stop offset="0.33" stop-color="#1D4680"/>
<stop offset="0.34" stop-color="#3A8BFF"/>
<stop offset="0.42" stop-color="#9587E4"/>
<stop offset="0.5" stop-color="#F084CA"/>
<stop offset="0.59" stop-color="#F8A4DA"/>
<stop offset="0.67" stop-color="#806275"/>
<stop offset="0.68"/>
</linearGradient>
<linearGradient id="paint2_linear_44_19677" x1="105.294" y1="46.6638" x2="102.81" y2="88.989" gradientUnits="userSpaceOnUse">
<stop offset="0.33" stop-color="#1D4680"/>
<stop offset="0.34" stop-color="#3A8BFF"/>
<stop offset="0.42" stop-color="#9587E4"/>
<stop offset="0.5" stop-color="#F084CA"/>
<stop offset="0.59" stop-color="#F8A4DA"/>
<stop offset="0.67" stop-color="#806275"/>
<stop offset="0.68"/>
</linearGradient>
<clipPath id="clip0_44_19677">
<rect width="164" height="164" fill="white" transform="translate(0.5)"/>
</clipPath>
</defs>
</svg>
