<svg width="165" height="164" viewBox="0 0 165 164" fill="none" xmlns="http://www.w3.org/2000/svg">
<mask id="mask0_44_19995" style="mask-type:luminance" maskUnits="userSpaceOnUse" x="0" y="0" width="165" height="164">
<path d="M164.5 0H0.5V164H164.5V0Z" fill="white"/>
</mask>
<g mask="url(#mask0_44_19995)">
<mask id="mask1_44_19995" style="mask-type:luminance" maskUnits="userSpaceOnUse" x="0" y="0" width="165" height="164">
<path d="M0.5 0H164.5V164H0.5V0Z" fill="white"/>
</mask>
<g mask="url(#mask1_44_19995)">
<path d="M75.0224 87.7467C65.3367 92.7448 57.116 105.584 55.1326 119.917C54.6515 123.395 47.9076 126.984 48.2292 130.547C50.0125 150.317 118.181 151.447 137.08 141.478C143.58 138.049 151.774 135.061 150.691 124.217C149.782 115.294 146.218 91.6138 134.242 87.451" fill="#FFD527"/>
<path d="M75.0224 87.7467C65.3367 92.7448 57.116 105.584 55.1326 119.917C54.6515 123.395 47.9076 126.984 48.2292 130.547C50.0125 150.317 118.181 151.447 137.08 141.478C143.58 138.049 151.774 135.061 150.691 124.217C149.782 115.294 146.218 91.6138 134.242 87.451" stroke="#FA9016" stroke-width="3.5231" stroke-linecap="round" stroke-linejoin="round"/>
<path d="M78.5718 138.74C73.4187 138.523 66.025 135.036 65.4648 133.946" stroke="#FCEE21" stroke-width="2.81848" stroke-linecap="round" stroke-linejoin="round"/>
<path d="M66.9724 99.0686C58.4777 92.9128 53.4204 84.1698 53.1699 73.7977C52.6384 51.7636 73.8378 29.6295 100.635 29.0826C127.432 28.5357 149.678 49.7824 150.21 71.8165C150.46 82.2168 145.804 91.1182 137.718 97.5631" fill="#FFD527"/>
<path d="M66.9724 99.0686C58.4777 92.9128 53.4204 84.1698 53.1699 73.7977C52.6384 51.7636 73.8378 29.6295 100.635 29.0826C127.432 28.5357 149.678 49.7824 150.21 71.8165C150.46 82.2168 145.804 91.1182 137.718 97.5631" stroke="#FA9016" stroke-width="3.5231" stroke-linecap="round" stroke-linejoin="round"/>
<path d="M119.345 39.4541C112.298 35.4198 103.44 34.7579 96.665 35.6571" stroke="white" stroke-width="2.81848" stroke-linecap="round" stroke-linejoin="round"/>
<path d="M103.906 62.0758C112.105 63.6334 114.953 56.1713 117.977 56.8801C121.362 57.6739 121.893 66.7832 128.778 69.0862C132.902 70.4658 134.1 72.7825 133.488 74.4672C133.202 75.3767 131.729 76.2678 129.88 76.399C128.491 78.2804 125.165 78.8674 123.32 78.8419C112.085 78.6864 102.334 74.208 99.7113 71.5486C98.0297 69.8436 97.0905 67.7273 97.2032 65.6778C97.3158 63.6283 99.6606 61.2692 103.906 62.0758Z" fill="#FF5D1F"/>
<path d="M103.906 62.0758C112.105 63.6334 114.953 56.1713 117.977 56.8801C121.362 57.6739 121.893 66.7832 128.778 69.0862C132.902 70.4658 134.1 72.7825 133.488 74.4672C133.202 75.3767 131.729 76.2678 129.88 76.399C128.491 78.2804 125.165 78.8674 123.32 78.8419C112.085 78.6864 102.334 74.208 99.7113 71.5486C98.0297 69.8436 97.0905 67.7273 97.2032 65.6778C97.3158 63.6283 99.6606 61.2692 103.906 62.0758Z" stroke="#CF3502" stroke-width="3.52331" stroke-linejoin="round"/>
<g opacity="0.33">
<path d="M120.032 67.1259C118.752 65.466 117.728 63.2209 117.35 61.8076" stroke="white" stroke-width="3.52331" stroke-linecap="round" stroke-linejoin="round"/>
</g>
<path d="M129.248 75.0294C116.595 74.4667 108.452 70.3621 103.426 67.8492" stroke="#7D0909" stroke-width="3.52331" stroke-linecap="round" stroke-linejoin="round"/>
<path d="M146.562 62.34C146.453 67.5477 143.167 71.7109 139.224 71.6323C135.28 71.5538 132.173 67.2634 132.282 62.0557C132.392 56.8481 135.677 52.6955 139.621 52.774C143.564 52.8525 146.672 57.1324 146.562 62.34Z" fill="black"/>
<path d="M146.562 62.34C146.453 67.5477 143.167 71.7109 139.224 71.6323C135.28 71.5538 132.173 67.2634 132.282 62.0557C132.392 56.8481 135.677 52.6955 139.621 52.774C143.564 52.8525 146.672 57.1324 146.562 62.34Z" stroke="black" stroke-width="0.00326658" stroke-linecap="round" stroke-linejoin="round"/>
<path d="M139.442 59.2471C140.082 60.5772 141.398 61.1145 142.383 60.4471C143.368 59.7798 143.647 58.1603 143.008 56.8303C142.368 55.5002 141.052 54.9629 140.067 55.6303C139.082 56.2976 138.803 57.9171 139.442 59.2471Z" fill="#FEFEFE"/>
<path d="M103.381 51.3454C101.623 56.2653 96.6223 59.0503 92.2146 57.5598C87.8068 56.0692 85.6612 50.8677 87.4199 45.9478C89.1786 41.0279 94.1757 38.2531 98.5834 39.7436C102.991 41.2342 105.14 46.4256 103.381 51.3454Z" fill="black"/>
<path d="M103.381 51.3454C101.623 56.2653 96.6223 59.0503 92.2146 57.5598C87.8068 56.0692 85.6612 50.8677 87.4199 45.9478C89.1786 41.0279 94.1757 38.2531 98.5834 39.7436C102.991 41.2342 105.14 46.4256 103.381 51.3454Z" stroke="black" stroke-width="0.00355334" stroke-linecap="round" stroke-linejoin="round"/>
<path d="M96.3504 45.844C96.6515 47.3402 97.9626 48.3245 99.279 48.0426C100.595 47.7606 101.418 46.3187 101.117 44.8225C100.816 43.3264 99.5049 42.342 98.1886 42.624C96.8722 42.906 96.0494 44.3479 96.3504 45.844Z" fill="#FEFEFE"/>
<path d="M65.3089 107.041C50.703 110.115 26.2468 109.142 28.7247 115.177C30.0545 118.524 40.53 130.457 54.9082 131.136" fill="#FFD527"/>
<path d="M65.3089 107.041C50.703 110.115 26.2468 109.142 28.7247 115.177C30.0545 118.524 40.53 130.457 54.9082 131.136" stroke="#FA9016" stroke-width="3.52358" stroke-linecap="round" stroke-linejoin="round"/>
<path d="M39.5591 113.382C44.4191 113.105 48.3236 112.491 53.6184 111.961" stroke="white" stroke-width="2.81849" stroke-linecap="round" stroke-linejoin="round"/>
<path d="M126.359 108.799C111.095 101.55 109.006 81.9038 101.76 85.2227C99.0061 86.4837 98.5225 105.38 103.406 117.555" fill="#FFD527"/>
<path d="M126.359 108.799C111.095 101.55 109.006 81.9038 101.76 85.2227C99.0061 86.4837 98.5225 105.38 103.406 117.555" stroke="#FA9016" stroke-width="3.52375" stroke-linecap="round" stroke-linejoin="round"/>
<path d="M109.238 97.1483C111.126 100.239 114.389 103.677 118.563 107.19" stroke="#FCEE21" stroke-width="2.81862" stroke-linecap="round" stroke-linejoin="round"/>
<path d="M53.6741 129.103L10.8702 131.168C9.24482 131.246 7.97437 129.987 8.03279 128.355L9.15497 97.0211C9.21339 95.3891 10.5787 94.0023 12.2041 93.9239L55.0079 91.8593C56.6334 91.7809 57.9038 93.0405 57.8454 94.6726L56.7232 126.006C56.6648 127.638 55.2995 129.025 53.6741 129.103Z" fill="url(#paint0_linear_44_19995)"/>
<path d="M53.6741 129.103L10.8702 131.168C9.24482 131.246 7.97437 129.987 8.03279 128.355L9.15497 97.0211C9.21339 95.3891 10.5787 94.0023 12.2041 93.9239L55.0079 91.8593C56.6334 91.7809 57.9038 93.0405 57.8454 94.6726L56.7232 126.006C56.6648 127.638 55.2995 129.025 53.6741 129.103Z" stroke="black" stroke-width="1.88566" stroke-linecap="round" stroke-linejoin="round"/>
<path d="M11.7708 136.839L53.4856 134.872C55.4582 134.777 56.9801 133.1 56.885 131.128L56.8671 130.756C56.8201 129.782 55.9918 129.03 55.0173 129.077L9.68845 131.219C8.71394 131.266 7.96194 132.094 8.00894 133.068L8.02686 133.44C8.122 135.412 9.7982 136.934 11.7708 136.839Z" fill="#E0D8CB"/>
<path d="M11.7708 136.839L53.4856 134.872C55.4582 134.777 56.9801 133.1 56.885 131.128L56.8671 130.756C56.8201 129.782 55.9918 129.03 55.0173 129.077L9.68845 131.219C8.71394 131.266 7.96194 132.094 8.00894 133.068L8.02686 133.44C8.122 135.412 9.7982 136.934 11.7708 136.839Z" stroke="#999999" stroke-width="1.88566" stroke-linecap="round" stroke-linejoin="round"/>
<path d="M5.68286 137.134L45.7638 135.201C47.7363 135.106 49.2583 133.429 49.1631 131.457L49.1452 131.085C49.0982 130.111 48.2702 129.359 47.2956 129.406L3.60037 131.514C2.62586 131.561 1.87405 132.389 1.92105 133.363L1.93897 133.735C2.03411 135.707 3.71031 137.229 5.68286 137.134Z" fill="#E0D8CB"/>
<path d="M5.68286 137.134L45.7638 135.201C47.7363 135.106 49.2583 133.429 49.1631 131.457L49.1452 131.085C49.0982 130.111 48.2702 129.359 47.2956 129.406L3.60037 131.514C2.62586 131.561 1.87405 132.389 1.92105 133.363L1.93897 133.735C2.03411 135.707 3.71031 137.229 5.68286 137.134Z" stroke="#999999" stroke-width="1.88566" stroke-linecap="round" stroke-linejoin="round"/>
<path d="M22.175 111.948C32.3096 106.911 37.9124 104.171 39.8574 103.594C41.5294 103.099 41.5071 104.363 41.5172 104.587C41.6347 107.188 40.3026 118.385 40.2139 119.101C40.0311 120.578 39.5222 121.095 39.0029 121.168C37.8744 121.327 36.9596 120.515 35.8156 119.848C34.0255 118.804 33.01 118.15 31.272 117.13C29.2635 115.953 30.4708 115.194 31.4993 114C31.7145 113.75 34.7711 110.642 36.026 109.192C36.4257 108.73 36.7513 108.391 36.451 108.153C36.1755 107.934 35.7845 108.27 35.1234 108.748C33.9369 109.606 31.6071 111.345 28.1333 113.966C27.3866 114.539 26.6966 114.834 26.0627 114.85C25.3639 114.869 23.998 114.555 22.98 114.279C21.7313 113.94 20.7456 113.777 20.7883 113.097C20.8105 112.744 21.2727 112.361 22.175 111.948Z" fill="white"/>
<path d="M156.048 119.294L154.452 122.532L155.159 87.1367L156.623 90.5164L156.048 119.294Z" fill="#E0D8CB"/>
<path d="M156.048 119.294L154.452 122.532L155.159 87.1367L156.623 90.5164L156.048 119.294Z" stroke="#999999" stroke-width="2.37047" stroke-linecap="round" stroke-linejoin="round"/>
<path d="M147.112 139.825C147.075 141.693 137.838 143.024 126.48 142.797C115.123 142.57 105.946 140.872 105.983 139.004C106.02 137.135 115.325 132.422 126.683 132.649C138.04 132.876 147.15 137.957 147.112 139.825Z" fill="#E0D8CB"/>
<path d="M147.112 139.825C147.075 141.693 137.838 143.024 126.48 142.797C115.123 142.57 105.946 140.872 105.983 139.004C106.02 137.135 115.325 132.422 126.683 132.649C138.04 132.876 147.15 137.957 147.112 139.825Z" stroke="#999999" stroke-width="2.37047" stroke-linecap="round" stroke-linejoin="round"/>
<path d="M147.39 125.892C147.282 131.326 137.986 135.548 126.629 135.321C115.271 135.094 106.152 130.505 106.261 125.071C106.369 119.637 115.664 115.415 127.022 115.642C138.379 115.869 147.499 120.458 147.39 125.892Z" fill="#E0D8CB"/>
<path d="M147.39 125.892C147.282 131.326 137.986 135.548 126.629 135.321C115.271 135.094 106.152 130.505 106.261 125.071C106.369 119.637 115.664 115.415 127.022 115.642C138.379 115.869 147.499 120.458 147.39 125.892Z" stroke="#999999" stroke-width="2.37047" stroke-linecap="round" stroke-linejoin="round"/>
<path d="M98.5882 128.808L154.191 129.918L155.203 79.2167L99.6006 78.1064L98.5882 128.808Z" fill="#E0D8CB"/>
<path d="M98.5882 128.808L154.191 129.918L155.203 79.2167L99.6006 78.1064L98.5882 128.808Z" stroke="#999999" stroke-width="2.37047" stroke-linecap="round" stroke-linejoin="round"/>
<path d="M155.355 125.193L154.192 129.918L155.204 79.2168L156.178 83.9715L155.355 125.193Z" fill="#E0D8CB"/>
<path d="M155.355 125.193L154.192 129.918L155.204 79.2168L156.178 83.9715L155.355 125.193Z" stroke="#999999" stroke-width="2.37047" stroke-linecap="round" stroke-linejoin="round"/>
<path d="M105.814 121.032L147.28 121.86L147.976 86.993L106.51 86.165L105.814 121.032Z" fill="url(#paint1_linear_44_19995)"/>
<path d="M105.814 121.032L147.28 121.86L147.976 86.993L106.51 86.165L105.814 121.032Z" stroke="#999999" stroke-width="2.37047" stroke-linecap="round" stroke-linejoin="round"/>
<path d="M147.976 86.993L106.51 86.165L105.814 121.032" stroke="#686868" stroke-width="2.37047" stroke-linecap="round" stroke-linejoin="round"/>
<path d="M146.989 125.884L144.345 125.831" stroke="#999999" stroke-width="2.37047" stroke-linecap="round" stroke-linejoin="round"/>
<path d="M139.819 125.741L137.175 125.688" stroke="#999999" stroke-width="2.37047" stroke-linecap="round" stroke-linejoin="round"/>
<path d="M113.282 102.199C126.504 96.7497 133.809 93.7939 136.306 93.2375C138.453 92.7592 138.295 94.3429 138.284 94.6239C138.163 97.896 135.339 111.821 135.153 112.712C134.772 114.548 134.081 115.152 133.422 115.199C131.992 115.302 130.929 114.205 129.564 113.271C127.428 111.809 126.223 110.901 124.15 109.475C121.754 107.826 123.345 106.979 124.757 105.569C125.053 105.274 129.204 101.64 130.927 99.9283C131.475 99.3833 131.918 98.9862 131.567 98.6615C131.244 98.3634 130.719 98.7522 129.841 99.2947C128.266 100.268 125.166 102.25 120.542 105.238C119.547 105.893 118.652 106.203 117.856 106.17C116.978 106.134 115.298 105.623 114.051 105.189C112.521 104.658 111.302 104.369 111.426 103.521C111.49 103.079 112.109 102.638 113.282 102.199Z" fill="white"/>
</g>
</g>
<defs>
<linearGradient id="paint0_linear_44_19995" x1="55.0753" y1="101.765" x2="86.2556" y2="85.6325" gradientUnits="userSpaceOnUse">
<stop offset="0.28" stop-color="#00A5ED"/>
<stop offset="0.29" stop-color="white"/>
<stop offset="0.52" stop-color="white"/>
<stop offset="0.75" stop-color="white"/>
<stop offset="0.76" stop-color="#00A5ED"/>
</linearGradient>
<linearGradient id="paint1_linear_44_19995" x1="70.4666" y1="113.491" x2="111.63" y2="102.275" gradientUnits="userSpaceOnUse">
<stop offset="0.28" stop-color="#00A5ED"/>
<stop offset="0.29" stop-color="white"/>
<stop offset="0.52" stop-color="white"/>
<stop offset="0.75" stop-color="white"/>
<stop offset="0.76" stop-color="#00A5ED"/>
</linearGradient>
</defs>
</svg>
