<svg width="179" height="125" viewBox="0 0 179 125" fill="none" xmlns="http://www.w3.org/2000/svg">
<g clip-path="url(#clip0_44_20136)">
<path d="M54.6446 -20.8759V0.0107441" stroke="white" stroke-width="3.53459" stroke-linecap="round" stroke-linejoin="round"/>
<path d="M69.1641 -20.8759V0.0107441" stroke="white" stroke-width="3.53459" stroke-linecap="round" stroke-linejoin="round"/>
<path d="M74.0039 -28.1865V7.32072" stroke="white" stroke-width="3.53459" stroke-linecap="round" stroke-linejoin="round"/>
<path d="M78.8438 -20.876V0.010622" stroke="white" stroke-width="3.53459" stroke-linecap="round" stroke-linejoin="round"/>
<path d="M117.522 -29.2303V8.36567" stroke="white" stroke-width="3.53459" stroke-linecap="round" stroke-linejoin="round"/>
<path d="M127.201 -25.0536V4.18772" stroke="white" stroke-width="3.53459" stroke-linecap="round" stroke-linejoin="round"/>
<path d="M109.242 51.0003C108.565 39.2928 110.789 36.0099 103.597 36.0099C96.4047 36.0099 91.1931 41.133 90.0669 51.5792C88.6434 64.7876 96.4382 68.5782 102.228 68.5552C108.017 68.5322 109.902 62.4139 109.242 51.0003Z" fill="#666666"/>
<path d="M109.242 51.0003C108.565 39.2928 110.789 36.0099 103.597 36.0099C96.4047 36.0099 91.1931 41.133 90.0669 51.5792C88.6434 64.7876 96.4382 68.5782 102.228 68.5552C108.017 68.5322 109.902 62.4139 109.242 51.0003Z" stroke="black" stroke-width="3.19475" stroke-linecap="round" stroke-linejoin="round"/>
<path d="M96.51 52.1906C95.042 58.1034 98.2591 68.2544 102.322 68.6432L96.51 52.1906Z" fill="#666666"/>
<path d="M96.51 52.1906C95.042 58.1034 98.2591 68.2544 102.322 68.6432" stroke="black" stroke-width="3.19475" stroke-linecap="round" stroke-linejoin="round"/>
<path d="M61.5229 48.3973C61.5229 35.8761 65.563 32.4718 70.8075 32.0622C76.3188 31.6319 82.3451 38.86 82.5064 49.1787C82.7281 63.3621 78.459 66.1847 71.589 66.5173C64.719 66.8499 61.5229 60.6041 61.5229 48.3973Z" fill="#666666"/>
<path d="M61.5229 48.3973C61.5229 35.8761 65.563 32.4718 70.8075 32.0622C76.3188 31.6319 82.3451 38.86 82.5064 49.1787C82.7281 63.3621 78.459 66.1847 71.589 66.5173C64.719 66.8499 61.5229 60.6041 61.5229 48.3973Z" stroke="black" stroke-width="3.19475" stroke-linecap="round" stroke-linejoin="round"/>
<path d="M73.6628 41.7383C76.8 47.2786 76.4512 64.9028 71.6581 65.5676L73.6628 41.7383Z" fill="#666666"/>
<path d="M73.6628 41.7383C76.8 47.2786 76.4512 64.9028 71.6581 65.5676" stroke="black" stroke-width="3.19475" stroke-linecap="round" stroke-linejoin="round"/>
<path d="M134.304 101.988C119.722 101.988 104.56 99.1561 103.335 89.0974C103.015 86.4658 103.162 83.5951 103.631 81.7494C104.387 78.7754 104.729 77.5479 105.383 75.5409C110.816 58.8814 117.714 57.3867 134.304 57.3867C152.411 57.3867 166.139 63.4448 167.412 86.1113C168.336 102.573 148.96 101.988 134.304 101.988Z" fill="#FFD527"/>
<path d="M134.304 101.988C119.722 101.988 104.56 99.1561 103.335 89.0974C103.015 86.4658 103.162 83.5951 103.631 81.7494C104.387 78.7754 104.729 77.5479 105.383 75.5409C110.816 58.8814 117.714 57.3867 134.304 57.3867C152.411 57.3867 166.139 63.4448 167.412 86.1113C168.336 102.573 148.96 101.988 134.304 101.988Z" stroke="#FA9016" stroke-width="2.57177" stroke-linecap="round" stroke-linejoin="round"/>
<path d="M41.7768 101.988C56.3589 101.988 71.5215 99.1564 72.7458 89.0977C73.0662 86.466 72.9195 83.5953 72.4504 81.7496C71.6945 78.7756 71.3524 77.5482 70.6979 75.5412C65.2651 58.8817 58.3668 57.387 41.7768 57.387C27.2916 57.387 16.1546 58.3597 10.6475 70.8437C9.27069 73.9648 8.17903 79.8838 8.31914 83.8371C2.05575 83.5577 6.4973 91.881 7.75603 93.9585C12.7411 102.186 30.0753 101.988 41.7768 101.988Z" fill="#FFD527"/>
<path d="M41.7768 101.988C56.3589 101.988 71.5215 99.1564 72.7458 89.0977C73.0662 86.466 72.9195 83.5953 72.4504 81.7496C71.6945 78.7756 71.3524 77.5482 70.6979 75.5412C65.2651 58.8817 58.3668 57.387 41.7768 57.387C27.2916 57.387 16.1546 58.3597 10.6475 70.8437C9.2707 73.9648 8.17903 79.8838 8.31914 83.8371C2.05575 83.5577 6.4973 91.881 7.75602 93.9585C12.7411 102.186 30.0753 101.988 41.7768 101.988Z" stroke="#FA9016" stroke-width="2.57177" stroke-linecap="round" stroke-linejoin="round"/>
<path d="M89.861 84.2861C132.362 84.2861 168.902 87.9439 176.654 96.9554C177.689 98.159 177.094 102.551 177.094 103.822C177.094 114.612 138.038 123.358 89.861 123.358C41.6837 123.358 2.62806 114.612 2.62806 103.822C2.62806 103.199 2.23333 98.122 2.48786 97.5141C6.64267 87.5909 44.4647 84.2861 89.861 84.2861Z" fill="#A27733"/>
<path d="M89.861 84.2861C132.362 84.2861 168.902 87.9439 176.654 96.9554C177.689 98.159 177.094 102.551 177.094 103.822C177.094 114.612 138.038 123.358 89.861 123.358C41.6837 123.358 2.62806 114.612 2.62806 103.822C2.62806 103.199 2.23333 98.122 2.48786 97.5141C6.64267 87.5909 44.4647 84.2861 89.861 84.2861Z" stroke="#886226" stroke-width="2.93916"/>
<path d="M89.8608 78.3379C138.038 78.3379 177.094 87.0845 177.094 97.8739C177.094 108.663 138.038 117.41 89.8608 117.41C41.6835 117.41 2.62793 108.663 2.62793 97.8739C2.62793 87.0845 41.6835 78.3379 89.8608 78.3379Z" fill="#C99D58"/>
<path d="M89.8608 78.3379C138.038 78.3379 177.094 87.0845 177.094 97.8739C177.094 108.663 138.038 117.41 89.8608 117.41C41.6835 117.41 2.62793 108.663 2.62793 97.8739C2.62793 87.0845 41.6835 78.3379 89.8608 78.3379Z" stroke="#886226" stroke-width="2.93916"/>
<path d="M105.222 70.131C90.3181 85.4829 108.132 89.1295 111.203 87.4524C113.898 86.7547 108.163 81.1964 112.419 77.4862" fill="#FFD527"/>
<path d="M105.222 70.131C90.3181 85.4829 108.132 89.1295 111.203 87.4524C113.898 86.7547 108.163 81.1964 112.419 77.4862" stroke="#FA9016" stroke-width="2.57177" stroke-linecap="round" stroke-linejoin="round"/>
<path d="M160.979 72.3534C166.84 67.2951 170.154 60.3353 169.972 52.2626C169.586 35.1132 153.654 18.5815 134.47 19.0135C115.287 19.4455 100.116 36.6776 100.502 53.827C100.684 61.9214 104.324 68.6938 110.331 73.4462" fill="#FFD527"/>
<path d="M160.979 72.3534C166.84 67.2951 170.154 60.3353 169.972 52.2626C169.586 35.1132 153.654 18.5815 134.47 19.0135C115.287 19.4455 100.116 36.6776 100.502 53.827C100.684 61.9214 104.324 68.6938 110.331 73.4462" stroke="#FA9016" stroke-width="2.57177" stroke-linecap="round" stroke-linejoin="round"/>
<path d="M115.626 32.8118C119.804 28.7928 125.404 25.9865 131.444 24.9667" stroke="white" stroke-width="2.42055" stroke-linecap="round" stroke-linejoin="round"/>
<path d="M159.955 38.2473C162.979 42.512 164.789 47.4622 164.902 52.4787C165.023 57.8503 163.181 62.5143 159.945 66.2385" stroke="#FCEE21" stroke-width="2.42055" stroke-linecap="round" stroke-linejoin="round"/>
<path d="M130.035 51.9151C130.998 55.0374 134.092 57.012 136.948 56.3257C139.803 55.6393 141.337 52.5517 140.374 49.4294C139.412 46.3071 136.317 44.3324 133.462 45.0188C130.606 45.7051 129.072 48.7928 130.035 51.9151Z" fill="black"/>
<path d="M136.493 48.191C136.466 49.0248 135.564 49.6716 134.481 49.6355C133.397 49.5995 132.54 48.8943 132.568 48.0605C132.596 47.2268 133.497 46.58 134.581 46.616C135.665 46.6521 136.521 47.3573 136.493 48.191Z" fill="white"/>
<path d="M114.798 51.8545C113.774 54.9108 110.981 56.6897 108.561 55.828C106.14 54.9662 105.007 51.7899 106.031 48.7337C107.055 45.6774 109.848 43.8985 112.268 44.7602C114.689 45.622 115.822 48.7983 114.798 51.8545Z" fill="black"/>
<path d="M112.262 48.0453C112.355 48.9112 111.751 49.7086 110.912 49.8263C110.698 49.8564 110.488 49.8393 110.294 49.7822C109.731 49.6168 109.295 49.1159 109.225 48.4717C109.132 47.6058 109.736 46.8085 110.575 46.6907C111.413 46.573 112.169 47.1794 112.262 48.0453Z" fill="white"/>
<path d="M164.94 85.5295C161.364 96.9236 143.7 92.7863 141.765 89.498C140.533 87.405 151.026 89.5927 151.468 76.772" fill="#FFD527"/>
<path d="M164.94 85.5295C161.364 96.9236 143.7 92.7863 141.765 89.498C140.533 87.405 151.026 89.5927 151.468 76.772" stroke="#FA9016" stroke-width="2.57177" stroke-linecap="round" stroke-linejoin="round"/>
<path d="M154.352 80.4364C153.838 82.8428 152.687 85.4145 149.265 87.9394" stroke="white" stroke-width="2.42055" stroke-linecap="round" stroke-linejoin="round"/>
<path d="M136.325 62.4036C122.334 62.6515 124.85 52.3697 121.281 52.8837C117.174 53.4753 118.538 61.7246 109.244 61.7087C106.124 61.7034 104.364 63.2356 106.4 65.6712C104.366 67.5302 105.919 68.9588 107.303 69.4998C114.258 72.2199 129.862 72.1253 136.756 70.3246C139.027 69.7313 140.403 67.7055 140.379 65.8452C140.386 64.0952 139.151 62.3534 136.325 62.4036Z" fill="#FF5D1F"/>
<path d="M136.325 62.4036C122.334 62.6515 124.85 52.3697 121.281 52.8837C117.174 53.4753 118.538 61.7246 109.244 61.7087C106.124 61.7034 104.364 63.2356 106.4 65.6712C104.366 67.5302 105.919 68.9588 107.303 69.4998C114.258 72.2199 129.862 72.1253 136.756 70.3246C139.027 69.7313 140.403 67.7055 140.379 65.8452C140.386 64.0952 139.151 62.3534 136.325 62.4036Z" stroke="#CF3502" stroke-width="2.42055" stroke-linecap="round" stroke-linejoin="round"/>
<path d="M114.81 63.5702C116.883 63.0149 119.621 59.8181 120.29 56.8185" stroke="#FFB484" stroke-width="2.42055" stroke-linecap="round" stroke-linejoin="round"/>
<path d="M136.217 66.3542C126.378 68.5407 110.136 67.5067 107.395 65.7461C109.425 66.3508 113.576 67.3205 118.15 67.5693C125.21 67.9522 132.832 66.9787 136.217 66.3542Z" fill="#7D0909"/>
<path d="M136.218 66.3554C126.379 68.5406 110.136 67.5074 107.395 65.7463C109.425 66.3519 113.576 67.3205 118.151 67.569C125.21 67.9525 132.833 66.9784 136.218 66.3554Z" stroke="#7D0909" stroke-width="0.411483"/>
<path d="M136.218 66.3554C126.379 68.5406 110.136 67.5074 107.395 65.7463C109.425 66.3519 113.576 67.3205 118.151 67.569C125.21 67.9525 132.833 66.9784 136.218 66.3554Z" stroke="#7D0909" stroke-width="2.42055" stroke-linecap="round" stroke-linejoin="round"/>
<path d="M58.5606 74.9931C58.309 80.8943 47.9922 75.9835 48.3874 79.7161C48.3912 85.4065 70.6402 89.2557 70.9395 75.8434" fill="#FFD527"/>
<path d="M58.5606 74.9931C58.309 80.8943 47.9922 75.9835 48.3874 79.7161C48.3912 85.4065 70.6402 89.2557 70.9395 75.8434" stroke="#FA9016" stroke-width="2.57177" stroke-linecap="round" stroke-linejoin="round"/>
<path d="M66.5303 72.2363C67.9968 74.4053 70.1047 77.2485 71.2238 79.3009" stroke="#FCEE21" stroke-width="2.42055" stroke-linecap="round" stroke-linejoin="round"/>
<path d="M16.5004 72.3536C10.6393 67.2954 7.3261 60.3355 7.50789 52.2628C7.89407 35.1135 23.8254 18.5817 43.0092 19.0137C62.1928 19.4457 77.364 36.6779 76.9778 53.8272C76.7955 61.9217 73.1556 68.6941 67.1483 73.4464" fill="#FFD527"/>
<path d="M16.5004 72.3536C10.6393 67.2954 7.32611 60.3355 7.50789 52.2628C7.89407 35.1135 23.8254 18.5817 43.0092 19.0137C62.1928 19.4457 77.364 36.6779 76.9778 53.8272C76.7955 61.9217 73.1556 68.6941 67.1483 73.4464" stroke="#FA9016" stroke-width="2.57177" stroke-linecap="round" stroke-linejoin="round"/>
<path d="M42.3492 24.33C36.5524 24.4026 30.5949 26.3366 25.5784 29.8526" stroke="white" stroke-width="2.42055" stroke-linecap="round" stroke-linejoin="round"/>
<path d="M67.8417 64.6114C70.3752 60.0383 71.6261 54.9184 71.1833 49.9201C70.7093 44.5681 68.3626 40.1365 64.7352 36.7931" stroke="#FCEE21" stroke-width="2.42055" stroke-linecap="round" stroke-linejoin="round"/>
<path d="M41.5112 53.3082C40.5644 56.7644 37.3081 59.0089 34.2377 58.3216C31.1674 57.6342 29.4461 54.2751 30.3927 50.8189C31.3395 47.3628 34.5958 45.1183 37.6661 45.8056C40.7365 46.4929 42.4577 49.8521 41.5112 53.3082Z" fill="black"/>
<path d="M34.509 49.3649C34.5606 50.2811 35.5411 50.9711 36.6988 50.9059C37.8565 50.8407 38.7534 50.0449 38.7018 49.1288C38.6502 48.2126 37.6696 47.5226 36.5119 47.5878C35.3542 47.653 34.4574 48.4488 34.509 49.3649Z" fill="white"/>
<path d="M61.1793 50.9801C62.3827 54.3151 65.4988 56.2007 68.1391 55.1917C70.7795 54.1826 71.9444 50.6609 70.741 47.3259C69.5376 43.9908 66.4215 42.1053 63.7812 43.1143C61.1409 44.1233 59.9759 47.645 61.1793 50.9801Z" fill="black"/>
<path d="M63.8723 46.7245C63.7919 47.6791 64.4764 48.5407 65.4015 48.6489C65.6382 48.6766 65.8679 48.6524 66.0798 48.5848C66.6957 48.3885 67.1624 47.8267 67.2223 47.1165C67.3027 46.1619 66.6182 45.3003 65.6931 45.1921C64.7681 45.0839 63.9528 45.77 63.8723 46.7245Z" fill="white"/>
<path d="M18.2099 85.6635C32.8505 95.5604 42.2842 74.2693 40.7657 72.3925C38.2046 69.1672 25.0615 82.4203 24.4739 74.2777" fill="#FFD527"/>
<path d="M18.2099 85.6635C32.8505 95.5604 42.2842 74.2693 40.7657 72.3925C38.2046 69.1672 25.0615 82.4203 24.4739 74.2777" stroke="#FA9016" stroke-width="2.57177" stroke-linecap="round" stroke-linejoin="round"/>
<path d="M22.7919 77.9817C23.9651 81.4916 28.6063 80.5226 32.0624 78.3544" stroke="white" stroke-width="2.42055" stroke-linecap="round" stroke-linejoin="round"/>
<path d="M41.8851 56.1361C49.1823 55.705 48.5376 46.8802 51.7588 47.2687C55.4663 47.7158 54.9599 56.226 62.8985 54.876C65.6162 54.4 67.1025 55.9647 65.0608 58.4894C66.9295 60.1198 65.9324 61.5877 64.8405 62.2984C59.363 65.8577 48.2497 65.9061 42.157 63.6539C39.9031 62.7666 38.3257 60.9911 38.3089 59.3168C38.2666 57.7424 39.3455 56.286 41.8851 56.1361Z" fill="#FF5D1F"/>
<path d="M41.8851 56.1361C49.1823 55.705 48.5376 46.8802 51.7588 47.2687C55.4663 47.7158 54.9599 56.226 62.8985 54.876C65.6162 54.4 67.1025 55.9647 65.0608 58.4894C66.9295 60.1198 65.9324 61.5877 64.8405 62.2984C59.363 65.8577 48.2497 65.9061 42.157 63.6539C39.9031 62.7666 38.3257 60.9911 38.3089 59.3168C38.2666 57.7424 39.3455 56.286 41.8851 56.1361Z" stroke="#CF3502" stroke-width="2.22201" stroke-linecap="round" stroke-linejoin="round"/>
<path d="M47.2679 56.1541C49.039 55.2545 50.0439 53.0993 51.2154 50.693" stroke="#FFB484" stroke-width="2.17849" stroke-linecap="round" stroke-linejoin="round"/>
<path d="M41.5592 59.5327C48.4351 60.9963 62.1731 59.8923 64.5198 58.5546C63.4047 59.6653 59.8072 60.9566 56.1682 61.2488C50.55 61.6988 44.1511 60.9334 41.5592 59.5327Z" fill="#7D0909"/>
<path d="M41.561 59.5334C48.4361 60.9964 62.1743 59.8931 64.5208 58.5546C63.4058 59.6657 59.8087 60.9572 56.1682 61.2491C50.5505 61.6996 44.1516 60.9329 41.561 59.5334Z" stroke="#7D0909" stroke-width="2.17849" stroke-linecap="round" stroke-linejoin="round"/>
<path d="M41.1607 38.9875C38.533 38.4215 35.0339 39.8211 33.6275 40.9226" stroke="black" stroke-width="2.17849" stroke-linecap="round" stroke-linejoin="round"/>
<path d="M59.8695 38.215C62.4171 37.3575 66.0512 38.3553 67.5725 39.2919" stroke="black" stroke-width="2.17849" stroke-linecap="round" stroke-linejoin="round"/>
<path d="M77.6728 102.386V82.7566" stroke="black" stroke-width="3.19475" stroke-linecap="round" stroke-linejoin="round"/>
<path d="M87.6972 100.87L77.6724 97.1627L67.7316 101.459" stroke="black" stroke-width="3.19475" stroke-linecap="round" stroke-linejoin="round"/>
<path d="M84.8505 89.5516C88.658 87.2165 89.8515 82.2365 87.5165 78.429L82.6276 70.4578C80.2925 66.6503 75.3128 65.4567 71.5053 67.7918C67.6978 70.1268 66.5043 75.1065 68.8393 78.914L73.7279 86.8856C76.063 90.693 81.043 91.8866 84.8505 89.5516Z" fill="#666666"/>
<path d="M84.8505 89.5516C88.658 87.2165 89.8515 82.2365 87.5165 78.429L82.6276 70.4578C80.2925 66.6503 75.3128 65.4567 71.5053 67.7918C67.6978 70.1268 66.5043 75.1065 68.8393 78.914L73.7279 86.8856C76.063 90.693 81.043 91.8866 84.8505 89.5516Z" stroke="black" stroke-width="3.19475" stroke-linecap="round" stroke-linejoin="round"/>
<path d="M80.789 77.1353C76.662 75.7596 71.9852 79.8179 72.398 84.3573L80.789 77.1353Z" fill="#666666"/>
<path d="M80.789 77.1353C76.662 75.7596 71.9852 79.8179 72.398 84.3573" stroke="black" stroke-width="3.19475" stroke-linecap="round" stroke-linejoin="round"/>
<path d="M83.1513 87.2833C79.209 88.1942 77.0222 86.707 76.0724 85.5828" stroke="#B7B7B7" stroke-width="2.5558" stroke-linecap="round" stroke-linejoin="round"/>
<path d="M123.352 108.684V89.0554" stroke="black" stroke-width="3.19475" stroke-linecap="round" stroke-linejoin="round"/>
<path d="M133.377 107.169L123.352 103.462L113.411 107.758" stroke="black" stroke-width="3.19475" stroke-linecap="round" stroke-linejoin="round"/>
<path d="M119.644 97.0168C123.86 98.4915 128.473 96.2692 129.948 92.0531L133.035 83.2266C134.51 79.0105 132.288 74.397 128.072 72.9223C123.856 71.4476 119.242 73.6698 117.768 77.886L114.68 86.7127C113.205 90.9289 115.428 95.5421 119.644 97.0168Z" fill="#666666"/>
<path d="M119.644 97.0168C123.86 98.4915 128.473 96.2692 129.948 92.0531L133.035 83.2266C134.51 79.0105 132.288 74.397 128.072 72.9223C123.856 71.4476 119.242 73.6698 117.768 77.886L114.68 86.7127C113.205 90.9289 115.428 95.5421 119.644 97.0168Z" stroke="black" stroke-width="3.19475" stroke-linecap="round" stroke-linejoin="round"/>
<path d="M131.512 86.8847C129.296 81.0415 120.532 79.5195 115.853 84.1005L131.512 86.8847Z" fill="#666666"/>
<path d="M131.512 86.8847C129.296 81.0415 120.532 79.5195 115.853 84.1005" stroke="black" stroke-width="3.19475" stroke-linecap="round" stroke-linejoin="round"/>
<path d="M118.478 86.1843C117.436 87.1428 116.823 90.6416 119.44 92.9348" stroke="#B6B6B6" stroke-width="2.23633" stroke-linecap="round" stroke-linejoin="round"/>
<path d="M68.624 71.9231L73.3477 79.446M76.5843 67.4619L80.6956 73.7601M73.2602 67.7243L77.1966 73.8476M70.5485 69.2114L75.8845 77.5216" stroke="black" stroke-width="1.3996" stroke-linecap="round" stroke-linejoin="round"/>
<path d="M122.395 73.7694L120.197 80.988M131.18 76.3528L129.403 82.9344M128.471 74.7095L126.613 81.5959M125.701 73.4197L123.58 81.1808" stroke="black" stroke-width="1.3996" stroke-linecap="round" stroke-linejoin="round"/>
<path d="M153.382 53.8221C153.382 66.3433 156.965 70.4949 162.846 70.5074C170.621 70.524 175.687 64.5843 175.837 54.2656C176.044 40.0821 169.525 34.9852 163.109 34.6526C156.693 34.3201 153.382 41.6153 153.382 53.8221Z" fill="#666666"/>
<path d="M153.382 53.8221C153.382 66.3433 156.965 70.4949 162.846 70.5074C170.621 70.524 175.687 64.5843 175.837 54.2656C176.044 40.0821 169.525 34.9852 163.109 34.6526C156.693 34.3201 153.382 41.6153 153.382 53.8221Z" stroke="black" stroke-width="3.19475" stroke-linecap="round" stroke-linejoin="round"/>
<path d="M163.221 36.6222C162.906 23.6729 148.127 6.77425 131.654 7.51577C114.479 8.28889 103.63 19.7644 101.487 37.7611" stroke="black" stroke-width="3.19475" stroke-linecap="round" stroke-linejoin="round"/>
<path d="M148 12.439C143.148 9.21614 137.508 7.25233 131.654 7.51591C124.37 7.84369 118.224 10.0966 113.397 13.9556" stroke="black" stroke-width="7.02846" stroke-linecap="round" stroke-linejoin="round"/>
<path d="M163.699 43.9609C160.769 49.5013 161.013 69.2251 165.489 69.8899L163.699 43.9609Z" fill="#666666"/>
<path d="M163.699 43.9609C160.769 49.5013 161.013 69.2251 165.489 69.8899" stroke="black" stroke-width="3.19475" stroke-linecap="round" stroke-linejoin="round"/>
<path d="M22.9551 54.3471C22.9551 66.8683 18.4131 69.7366 13.7074 69.8075C8.613 69.8842 2.83926 63.8962 2.68624 53.5775C2.47596 39.3941 7.61006 34.2853 14.1259 33.9528C20.6416 33.6202 22.9551 42.1403 22.9551 54.3471Z" fill="#666666"/>
<path d="M22.9551 54.3471C22.9551 66.8683 18.4131 69.7366 13.7074 69.8075C8.613 69.8842 2.83926 63.8962 2.68625 53.5775C2.47596 39.3941 7.61006 34.2853 14.1259 33.9528C20.6416 33.6202 22.9551 42.1403 22.9551 54.3471Z" stroke="black" stroke-width="3.11131" stroke-linecap="round" stroke-linejoin="round"/>
<path d="M15.6972 37.4999C15.5972 24.203 29.1472 6.37244 44.8552 6.58489C60.6193 6.79831 71.1093 17.3819 74.1875 34.5799" stroke="black" stroke-width="3.11131" stroke-linecap="round" stroke-linejoin="round"/>
<path d="M29.4431 12.1805C33.9642 8.71227 39.2735 6.5095 44.8554 6.58488C51.8009 6.67881 57.7225 8.78576 62.4375 12.5846" stroke="black" stroke-width="6.84487" stroke-linecap="round" stroke-linejoin="round"/>
<path d="M13.5272 43.2617C16.5027 48.8021 16.2549 68.5258 11.7089 69.1907L13.5272 43.2617Z" fill="#666666"/>
<path d="M13.5272 43.2617C16.5027 48.8021 16.2549 68.5258 11.7089 69.1907" stroke="black" stroke-width="3.11131" stroke-linecap="round" stroke-linejoin="round"/>
<path d="M10.2051 38.2744C3.8923 42.3567 5.46701 53.1163 5.89849 55.4558" stroke="#A7A7A7" stroke-width="2.48904" stroke-linecap="round" stroke-linejoin="round"/>
</g>
<defs>
<clipPath id="clip0_44_20136">
<rect width="179" height="124.758" fill="white"/>
</clipPath>
</defs>
</svg>
