<svg width="165" height="164" fill="none" xmlns="http://www.w3.org/2000/svg"><g clip-path="url(#clip0_44_19677)"><mask id="mask0_44_19677" style="mask-type:luminance" maskUnits="userSpaceOnUse" x="0" y="0" width="165" height="164"><path d="M164.5 0H.5v164h164V0z" fill="#fff"/></mask><g mask="url(#mask0_44_19677)"><path d="M152.017 142.036c.84-2.078 1.016-4.478.072-6.942L104.041 9.697C101.762 3.75 93.928-.423 86.544.377L14.933 8.131c-4.987.54-8.32 3.27-9.696 6.68-.129.318-.833 5.261-1.018 5.717-.84 2.078-1.036 4.423-.092 6.886l48.049 125.398c2.279 5.947 10.112 10.12 17.497 9.321l71.611-7.756c4.986-.54 8.339-3.216 9.716-6.625.129-.318.834-5.263 1.017-5.717z" fill="#136386"/><path d="M23.305 74.13L12.77 46.633m17.125 44.478l-3.39-8.846" stroke="#0183B9" stroke-width="5.287" stroke-linecap="round" stroke-linejoin="round"/><path d="M36.323 98.505L13.475 38.874" stroke="#136386" stroke-width="5.287" stroke-linecap="round" stroke-linejoin="round"/><path d="M16.191 11.418l71.611-7.756c5.131-.556 10.575 2.344 12.159 6.477l48.048 125.398c1.584 4.133-1.292 7.934-6.423 8.49l-71.611 7.756c-5.132.555-10.575-2.345-12.16-6.478L9.768 19.908c-1.584-4.133 1.293-7.934 6.424-8.49z" fill="url(#paint0_linear_44_19677)"/><path d="M75.71 20.154l-52.575 5.694c-1.752.19-2.734 1.488-2.193 2.9l3.497 9.126c.008.021.02.042.028.063l-1.316 2.108a.277.277 0 00-.02.251c.078.202.344.344.594.316l57.44-6.221c1.753-.19 2.735-1.487 2.194-2.899l-3.497-9.126c-.54-1.412-2.4-2.402-4.152-2.212z" fill="#fff"/><path d="M28.16 29.106l19.036-2.062c.751-.081 1.547.343 1.78.948.23.605-.19 1.16-.94 1.242l-19.037 2.062c-.75.082-1.547-.343-1.779-.948-.232-.605.189-1.16.94-1.242z" fill="#B1D9FC"/><path d="M30.118 34.217l44.644-4.836c.75-.081 1.547.343 1.78.948.23.605-.19 1.161-.941 1.242l-44.644 4.836c-.75.081-1.547-.343-1.779-.948-.232-.605.19-1.161.94-1.242z" fill="#D9E6EE"/><path d="M98.21 36.373L30 43.76c-1.752.19-2.735 1.488-2.194 2.9l7.554 19.713c.008.021.02.042.029.063l-1.316 2.107a.278.278 0 00-.02.252c.077.202.343.343.593.316l73.077-7.914c1.753-.19 2.735-1.488 2.194-2.9l-7.554-19.713c-.541-1.411-2.4-2.401-4.151-2.211z" fill="#fff"/><path d="M35.023 47.019l19.036-2.062c.751-.081 1.548.343 1.78.948.231.605-.19 1.161-.94 1.242L35.862 49.21c-.752.082-1.548-.343-1.78-.948-.231-.605.19-1.16.94-1.242z" fill="#B1D9FC"/><path d="M40.898 62.351l31.273-3.387c.751-.081 1.548.343 1.78.948.231.605-.19 1.161-.94 1.243L41.737 64.54c-.75.082-1.547-.343-1.779-.947-.232-.605.189-1.162.94-1.243zM36.981 52.13l59.148-6.407c.75-.08 1.547.344 1.779.949.232.604-.189 1.16-.94 1.242L37.821 54.32c-.751.081-1.548-.343-1.78-.948-.231-.605.19-1.161.94-1.243zm1.959 5.11l59.147-6.406c.75-.082 1.547.343 1.779.948.232.605-.189 1.161-.94 1.242L39.78 59.43c-.751.082-1.548-.343-1.78-.948-.231-.604.19-1.16.94-1.242zM22.496 16.35l31.273-3.387c.751-.081 1.547.343 1.78.948.23.605-.19 1.161-.94 1.243L23.334 18.54c-.751.082-1.548-.343-1.78-.947-.231-.605.19-1.162.94-1.243zm-1.959-5.11l39.207-4.324c.751-.081 1.548.344 1.78.948.231.605-.19 1.161-.94 1.243L21.377 13.43c-.751.081-1.548-.343-1.78-.948-.232-.605.19-1.16.94-1.242z" fill="#D9E6EE"/><path d="M48.65 105.996c-.25.027-.515-.114-.593-.316a.28.28 0 01.007-.228l1.013-2.053a2.047 2.047 0 01-.043-.106l-10.77-28.11c-.542-1.41.44-2.709 2.193-2.898l43.737-4.737c1.752-.19 3.61.8 4.152 2.211l10.77 28.11c.541 1.411-.441 2.709-2.193 2.899l-48.273 5.228z" fill="#fff"/><path d="M65.226 79.954c-4.574.495-7.137 3.884-5.726 7.568 1.411 3.684 6.264 6.268 10.838 5.773 4.574-.495 7.137-3.883 5.725-7.567-1.411-3.684-6.263-6.27-10.837-5.774zm5.847 6.61l-3.173 2.94c-.224.209-.705.083-.816-.209l-1.91-4.983c-.112-.292.238-.508.598-.361l5.082 2.044c.293.117.403.401.219.57z" fill="#A0D0FA"/><path d="M114.379 102.836l-57.906 6.377c-1.693.177-2.643 1.418-2.118 2.768l7.337 18.869.027.06-1.272 2.014a.262.262 0 00-.018.24c.077.193.332.328.574.303l62.618-6.876c1.694-.179 2.643-1.417 2.118-2.768l-7.337-18.868c-.525-1.351-2.326-2.299-4.023-2.119z" stroke="#fff" stroke-width=".804" stroke-linecap="round" stroke-linejoin="round" stroke-dasharray="3.52 3.52"/><path d="M87.802 3.662L16.19 11.418c-5.132.556-8.008 4.357-6.424 8.49l4.616 12.046 90.194-9.768-4.616-12.047c-1.584-4.133-7.028-7.033-12.16-6.477z" fill="#EDE0EE"/><path d="M148.009 135.537l-1.818-4.746-90.194 9.769 1.819 4.745c1.583 4.134 7.027 7.034 12.158 6.478l71.611-7.756c5.132-.556 8.008-4.357 6.424-8.49z" fill="#E4EEF9"/><path d="M59.991 12.118c.376 1.261-.731 2.444-2.474 2.642-1.743.197-3.46-.664-3.837-1.925-.376-1.26.732-2.443 2.475-2.64 1.742-.199 3.46.663 3.836 1.923z" fill="#000"/><path d="M152.089 135.095L104.04 9.698C101.761 3.75 93.928-.423 86.543.376l-71.61 7.756c-7.385.8-11.523 6.27-9.244 12.218l48.048 125.397c2.28 5.947 10.113 10.121 17.497 9.321l71.611-7.756c7.385-.799 11.523-6.27 9.244-12.217zm-10.503 8.932l-71.61 7.756c-5.132.555-10.576-2.345-12.16-6.478L9.768 19.908c-1.584-4.133 1.292-7.934 6.424-8.49l71.61-7.756c5.132-.556 10.576 2.344 12.16 6.477l48.048 125.398c1.584 4.133-1.293 7.934-6.424 8.49z" fill="#000"/><path d="M123.871 55.636s11.295 31.444 14.864 45.286c-8.471 3.923-24.083 5.475-34.781 3.677-13.788-2.319-25.502-9.601-25.022-22.39.521-13.883 8.962-25.116 17.24-28.42" fill="#000" opacity=".15"/><path d="M132.372 52.812c5.997 5.386 22.962 15.17 15.164 34.965-7.644 19.407-71.748 17.094-70.531-10 .587-13.076 9.547-23.464 18.314-26.382" fill="#FFD527"/><path d="M132.372 52.812c5.997 5.386 22.962 15.17 15.164 34.965-7.644 19.407-71.748 17.094-70.531-10 .587-13.076 9.547-23.464 18.314-26.382" stroke="#FA9016" stroke-width="3.202" stroke-linecap="round" stroke-linejoin="round"/><path d="M99.757 93.887c6.43 2.74 17.777 2.282 24.591 1.254" stroke="#FCEE21" stroke-width="3.204" stroke-linecap="round" stroke-linejoin="round"/><path d="M148.691 73.91c1.597 11.197-7.33 18.64-10.297 17.385-5.116-2.042 1.598-4.61-.151-17.353" fill="#FFD527"/><path d="M148.691 73.91c1.597 11.197-7.33 18.64-10.297 17.385-5.116-2.042 1.598-4.61-.151-17.353" stroke="#FA9016" stroke-width="3.204" stroke-linecap="round" stroke-linejoin="round"/><path d="M140.086 85.813c1.148-2.251 1.183-6.15 1.035-9.905" stroke="#FCEE21" stroke-width="2.563" stroke-linecap="round" stroke-linejoin="round"/><path d="M79.029 67.959c-5.811 5.584-10.106 8.906-11.472 12.955-1.365 4.05 7.802 6.94 13.504.77" fill="#FFD527"/><path d="M79.029 67.959c-5.811 5.584-10.106 8.906-11.472 12.955-1.365 4.05 7.802 6.94 13.504.77" stroke="#FA9016" stroke-width="3.204" stroke-linecap="round" stroke-linejoin="round"/><path d="M138.963 68.292c6.39-4.548 10.273-11.154 10.62-19.11.738-16.902-14.624-34.334-34.47-35.312-19.846-.978-36.66 14.867-37.397 31.77-.349 7.977 2.963 14.907 8.854 20.023" fill="#FFD527"/><path d="M138.963 68.292c6.39-4.548 10.273-11.154 10.62-19.11.738-16.902-14.624-34.334-34.47-35.312-19.846-.978-36.66 14.867-37.397 31.77-.349 7.977 2.963 14.907 8.854 20.023" stroke="#FA9016" stroke-width="3.202" stroke-linecap="round" stroke-linejoin="round"/><path d="M126.801 23.167a32.187 32.187 0 00-8.322-2.499c-6.164-.981-12.476-.205-17.854 2.095" stroke="#fff" stroke-width="3.204" stroke-linecap="round" stroke-linejoin="round" stroke-dasharray="15.06 6.41"/><path d="M123.511 58.761c-9.92.04-10.754-7.645-12.598-7.424-2.023.243-4.008 6.025-11.37 6.486-2.195.137-3.255 1.536-3.3 3.099-.045 1.493.836 3.115 2.53 3.85 4.06 1.76 9.616 2.153 14.368 2.003 4.386-.138 8.088-.74 9.301-1.157 2.177-.748 4.201-1.723 4.613-3.814.197-1-.9-3.053-3.544-3.043z" fill="#FF5D1F"/><path d="M123.511 58.761c-9.92.04-10.754-7.645-12.598-7.424-2.023.243-4.008 6.025-11.37 6.486-2.195.137-3.255 1.536-3.3 3.099-.045 1.493.836 3.115 2.53 3.85 4.06 1.76 9.616 2.153 14.368 2.003 4.386-.138 8.088-.74 9.301-1.157 2.177-.748 4.201-1.723 4.613-3.814.197-1-.9-3.053-3.544-3.043z" stroke="#CF3502" stroke-width="2.882" stroke-linejoin="round"/><path d="M105.81 58.908c1.61-.762 3.513-2.258 4.586-3.663" stroke="#fff" stroke-width="2.882" stroke-linecap="round" stroke-linejoin="round" opacity=".33"/><path d="M120.683 62.49c-4.441.455-11.323 1.175-20.188-.709 2.641 1.267 10.396 1.468 12.962 1.375 2.567-.093 7.226-.666 7.226-.666z" stroke="#7D0909" stroke-width="2.882" stroke-linecap="round" stroke-linejoin="round"/><path d="M120.683 62.49c-4.441.455-11.323 1.175-20.188-.709 2.641 1.267 10.396 1.468 12.962 1.375 2.567-.093 7.226-.666 7.226-.666z" fill="#7D0909"/><path d="M96.235 42.957c-3.125-.331-5.95 2.152-6.31 5.545-.36 3.394 1.881 6.413 5.006 6.744 3.125.331 5.95-2.152 6.31-5.545.36-3.394-1.881-6.413-5.006-6.744z" fill="#000"/><path d="M98.995 45.79c.35.993-.042 2-.878 2.25-.836.249-1.799-.354-2.15-1.347-.352-.992.041-2 .877-2.249.837-.25 1.8.353 2.15 1.346z" fill="#fff"/><path d="M127.163 43.206c3.133-.19 5.885 2.42 6.148 5.827.264 3.407-2.062 6.323-5.194 6.513-3.133.19-5.885-2.419-6.149-5.826-.263-3.408 2.063-6.324 5.195-6.514z" fill="#000"/><path d="M131.423 47.301c.132 1.038-.47 1.945-1.344 2.026-.874.08-1.688-.696-1.82-1.734-.131-1.039.47-1.946 1.344-2.026.874-.08 1.689.696 1.82 1.734zm.347 17.4l-11.756-.482-20.892-.858-17.783-.73-9.937-.408c-2.058-.085-3.693 1.337-3.65 3.174l.596 25.666c.001.028.005.056.007.084l-2.339 2.358a.42.42 0 00-.123.306c.006.263.25.485.543.498l17.776.73 15.81.648 20.195.83 12.304.505c2.059.084 3.693-1.337 3.651-3.175l-.597-25.666c-.043-1.837-1.746-3.395-3.805-3.48z" fill="#fff"/><path d="M131.77 64.701l-11.756-.482-20.892-.858-17.783-.73-9.937-.408c-2.058-.085-3.693 1.337-3.65 3.174l.596 25.666c.001.028.005.056.007.084l-2.339 2.358a.42.42 0 00-.123.306c.006.263.25.485.543.498l17.776.73 15.81.648 20.195.83 12.304.505c2.059.084 3.693-1.337 3.651-3.175l-.597-25.666c-.043-1.837-1.746-3.395-3.805-3.48z" stroke="#fff" stroke-width=".802" stroke-linecap="round" stroke-linejoin="round"/><path d="M75.774 67.15l7.331.317 10.746.464c.882.036 1.612.704 1.63 1.492.019.787-.682 1.396-1.564 1.36l-9.003-.39-9.074-.391c-.882-.037-1.613-.705-1.63-1.492-.02-.787.681-1.396 1.564-1.36z" fill="#B1D9FC"/><path d="M75.928 73.805l5.052.212 13.438.564 22.845.862 4.091.267c.882.037 1.613.705 1.631 1.492.018.787-.682 1.397-1.565 1.36l-4.183-.272-23.103-.872-13.04-.547-5.1-.214c-.882-.036-1.612-.704-1.63-1.492-.018-.787.682-1.396 1.564-1.36z" fill="#D9E6EE"/><path d="M111.202 90.771l-7.516-.328-16.15-.706-10.64-.465c-1.161-.048-2.122-.927-2.146-1.963l-.094-4.035c-.024-1.036.898-1.838 2.06-1.79l11.07.484 15.69.686 7.545.33c1.161.047 2.122.926 2.146 1.962l.093 4.035c.025 1.037-.897 1.838-2.058 1.79z" fill="#fff"/><path d="M111.202 90.771l-7.516-.328-16.15-.706-10.64-.465c-1.161-.048-2.122-.927-2.146-1.963l-.094-4.035c-.024-1.036.898-1.838 2.06-1.79l11.07.484 15.69.686 7.545.33c1.161.047 2.122.926 2.146 1.962l.093 4.035c.025 1.037-.897 1.838-2.058 1.79z" stroke="#A0D0FA" stroke-width="1.436" stroke-linecap="round" stroke-linejoin="round"/><path d="M100.514 70.092a.375.375 0 00-.201-.328c-.131-.079-.347-.152-.648-.22a3.79 3.79 0 01-.754-.244c-.444-.208-.67-.492-.678-.851-.007-.302.13-.548.41-.739.28-.19.64-.277 1.079-.259.468.02.849.138 1.142.357.293.218.444.492.452.822l-.88-.036a.497.497 0 00-.197-.384.822.822 0 00-.503-.171.813.813 0 00-.47.1.339.339 0 00-.175.313c.003.12.06.216.176.288.115.071.346.148.693.23.347.082.619.174.818.276.199.101.348.22.446.355a.828.828 0 01.155.484c.007.315-.134.564-.421.747-.287.183-.668.264-1.14.245a2.318 2.318 0 01-.862-.19 1.522 1.522 0 01-.597-.45.995.995 0 01-.224-.594l.855.035a.577.577 0 00.245.437c.147.106.34.165.58.175.231.009.406-.024.525-.097.119-.074.177-.174.174-.301zm5.178-.257c.013.541-.115.966-.382 1.277-.268.311-.633.457-1.097.438-.429-.017-.776-.157-1.04-.42l.038 1.658-.88-.036-.112-4.84.811.032.044.357c.251-.27.6-.395 1.044-.377.478.02.856.194 1.135.523.279.33.425.776.438 1.34l.001.048zm-.679-.144c-.008-.349-.092-.629-.253-.84-.16-.211-.385-.322-.675-.335-.36-.014-.615.108-.766.366l.037 1.551c.165.278.429.425.791.44.28.011.497-.08.65-.275.154-.195.226-.498.216-.907zm1.002-.325a1.795 1.795 0 01.206-.916c.146-.269.355-.471.626-.607a1.91 1.91 0 01.943-.183c.529.022.962.191 1.298.509.337.317.524.727.563 1.23l.008.184c.008.345-.059.65-.202.916a1.402 1.402 0 01-.622.603 1.919 1.919 0 01-.953.184c-.553-.023-.999-.205-1.338-.547-.34-.342-.516-.787-.528-1.334l-.001-.04zm.881.104c.009.36.098.645.269.855.172.21.406.322.703.334.297.012.526-.082.686-.282.16-.2.236-.499.226-.898-.008-.353-.099-.636-.274-.85a.912.912 0 00-.701-.339c-.287-.012-.512.08-.677.277-.164.197-.241.498-.232.903zm4.015-1.45l-.194.41c.283-.301.887-.446 1.358-.427.816.034 1.241.467 1.275 1.301l.054 2.311-.88-.036-.053-2.265c-.005-.222-.062-.389-.172-.5-.11-.11-.287-.171-.531-.181-.355-.014-.616.118-.783.397l.058 2.488-.88-.036-.081-3.496.829.034zm5.395 2.9a.377.377 0 00-.202-.328c-.13-.078-.346-.151-.646-.22a3.817 3.817 0 01-.755-.244c-.444-.207-.669-.491-.678-.85-.007-.303.13-.549.41-.74.28-.19.64-.277 1.079-.259.468.02.849.138 1.142.357.293.219.444.493.452.822l-.88-.036a.5.5 0 00-.197-.384.822.822 0 00-.503-.17.813.813 0 00-.47.1.34.34 0 00-.176.312c.003.12.062.216.177.288.115.072.346.148.693.23.347.082.619.174.818.276.199.102.348.22.446.355.099.136.15.297.154.485.008.314-.133.563-.42.746-.287.183-.668.265-1.141.245a2.32 2.32 0 01-.862-.19 1.517 1.517 0 01-.596-.45.996.996 0 01-.224-.594l.855.035a.576.576 0 00.245.438c.147.106.34.164.579.174.232.009.407-.023.526-.097.119-.073.177-.174.174-.3zm1.722-.693a1.797 1.797 0 01.207-.916 1.42 1.42 0 01.626-.607 1.9 1.9 0 01.944-.182c.528.021.96.19 1.297.508.337.317.524.727.563 1.23l.007.184c.009.345-.059.65-.201.916-.142.265-.35.467-.623.604-.273.137-.59.198-.952.184-.553-.023-.999-.206-1.338-.548-.34-.342-.516-.787-.529-1.334l-.001-.039zm.882.105c.008.36.098.644.269.855a.91.91 0 00.702.334c.297.012.526-.083.687-.282.16-.2.236-.5.227-.898-.009-.353-.1-.637-.275-.85a.912.912 0 00-.701-.34c-.287-.011-.513.081-.677.278-.165.197-.242.498-.232.903zm5.625-.917a2.492 2.492 0 00-.36-.04c-.402-.016-.671.11-.805.38l.056 2.391-.88-.036-.081-3.496.84.034.031.392c.205-.295.496-.435.873-.42a.938.938 0 01.312.059l.014.736zm2.186 3.012c-.558-.022-1.014-.198-1.367-.525-.354-.328-.537-.753-.549-1.274l-.002-.097c-.008-.349.06-.657.204-.926a1.46 1.46 0 01.621-.615 1.75 1.75 0 01.907-.192c.533.022.949.19 1.247.506.298.316.453.751.466 1.307l.008.317-2.56-.105c.033.29.146.523.34.698a1.1 1.1 0 00.72.282c.404.016.728-.116.975-.396l.484.423a1.414 1.414 0 01-.617.46 2.09 2.09 0 01-.877.137zm-.175-3c-.242-.01-.435.058-.579.203-.145.145-.236.35-.27.618l1.676.069-.001-.058c-.026-.263-.109-.466-.25-.606-.14-.14-.332-.216-.576-.225zm2.221 1.247c-.013-.538.118-.965.39-1.28.272-.314.644-.463 1.115-.443.415.017.753.16 1.015.43l-.041-1.79.88.035.115 4.963-.797-.032-.052-.364c-.257.274-.604.401-1.043.383a1.499 1.499 0 01-1.125-.54c-.291-.34-.444-.795-.457-1.362zm.882.104c.008.356.091.636.249.842a.83.83 0 00.66.325c.36.015.62-.117.78-.396l-.035-1.493c-.169-.287-.432-.438-.792-.453-.285-.011-.502.08-.652.275-.15.195-.22.495-.21.9z" fill="#BACED8"/><path d="M77.266 73.39c-2.578 1.44-4.508 5.14-5.995 6.372" stroke="#fff" stroke-width="2.563" stroke-linecap="round" stroke-linejoin="round"/><path d="M79.886 43.125c.232-.263 28.218-.54 28.189.15-.016.333-4.578 14.42-5.33 14.6-.361.088-16.958.454-17.393-.124-.186-.246-4.562-10.754-5.367-13.813-.12-.453-.16-.743-.1-.813zm33.942-.417c.236-.26 28.228-.212 28.186.477-.001.04-.072.276-.195.66-.906 2.832-4.685 13.723-5.351 13.875-.363.083-16.965.255-17.392-.326-.209-.286-5.734-14.15-5.248-14.686z" fill="#000"/><path d="M79.885 43.126c.232-.264 28.218-.54 28.188.149-.014.332-4.575 14.419-5.328 14.6-.361.088-16.96.453-17.394-.125-.185-.246-4.56-10.754-5.367-13.813-.12-.452-.16-.741-.1-.811zm33.942-.418c.237-.26 28.228-.212 28.188.477-.002.04-.073.276-.196.66-.908 2.831-4.685 13.723-5.35 13.876-.363.083-16.967.255-17.393-.328-.209-.284-5.735-14.148-5.249-14.685z" stroke="#000" stroke-width="2.333" stroke-linecap="round" stroke-linejoin="round"/><path d="M106.687 47.713c.977-2.526 1.76-4.064 4.058-4.057 2.297.007 3.413.613 4.35 3.683" stroke="#000" stroke-width="3.888" stroke-linecap="round" stroke-linejoin="round"/><path d="M79.975 42.842c.235-.263 28.188-.37 28.154.321-.017.332-4.682 14.408-5.435 14.586-.362.085-16.942.35-17.372-.232-.21-.284-5.828-14.135-5.347-14.675z" fill="url(#paint1_linear_44_19677)"/><path d="M113.88 42.63c.238-.26 28.195-.04 28.149.65-.021.331-4.896 14.35-5.651 14.518-.363.081-16.948.152-17.37-.434-.205-.286-5.618-14.199-5.128-14.734z" fill="url(#paint2_linear_44_19677)"/><path d="M79.912 43.033c.232-.264 28.218-.54 28.189.15-.014.331-4.576 14.418-5.328 14.6-.362.087-16.96.452-17.395-.125-.212-.282-5.944-14.082-5.466-14.625zm33.943-.418c.236-.26 28.227-.212 28.187.477-.019.332-4.79 14.363-5.546 14.536-.363.083-16.966.255-17.393-.328-.208-.284-5.735-14.148-5.248-14.685z" stroke="#000" stroke-width="2.333" stroke-linecap="round" stroke-linejoin="round"/><path d="M80.16 118.338l-2.905 1.78a.642.642 0 01-.957-.705l.45-1.77c.162-.639.6-1.174 1.194-1.459l3.17-1.522a.297.297 0 00-.18-.56l-3.528.611a2.473 2.473 0 01-2.01-.542l-1.116-.934a.642.642 0 01.362-1.131l3.406-.267a.642.642 0 00.543-.394l1.314-3.172a.641.641 0 011.186 0l1.314 3.172a.642.642 0 00.542.394l3.425.268a.642.642 0 01.366 1.128l-2.612 2.227a.64.64 0 00-.207.638l.802 3.336a.64.64 0 01-.959.697l-2.93-1.795a.642.642 0 00-.67 0zm6.664-15.634l-1.791 1.097a.395.395 0 01-.59-.434l.277-1.092c.1-.393.37-.723.736-.899l1.954-.938a.183.183 0 00-.11-.345l-2.175.376a1.524 1.524 0 01-1.24-.333l-.687-.576a.395.395 0 01.223-.698l2.1-.164a.396.396 0 00.334-.243l.81-1.955a.395.395 0 01.731 0l.81 1.955a.395.395 0 00.334.243l2.111.165a.396.396 0 01.226.695l-1.61 1.373a.396.396 0 00-.128.394l.495 2.056a.395.395 0 01-.591.429l-1.806-1.106a.398.398 0 00-.413 0zm-15.137-1.54l-.125.077a.028.028 0 01-.039-.009.027.027 0 01-.003-.021l.02-.077a.1.1 0 01.051-.063l.137-.066c.007-.003.01-.01.006-.017a.013.013 0 00-.013-.007l-.153.027a.11.11 0 01-.087-.024l-.048-.04a.028.028 0 01-.004-.039.025.025 0 01.02-.01l.147-.012a.027.027 0 00.023-.017l.057-.137a.028.028 0 01.051 0l.057.137c.004.01.013.016.024.017l.148.012a.028.028 0 01.025.03.03.03 0 01-.01.019l-.112.096a.028.028 0 00-.01.028l.035.144a.027.027 0 01-.02.033.026.026 0 01-.021-.003l-.127-.078a.03.03 0 00-.029 0zm44.943 5.916l-2.419 1.482a.534.534 0 01-.796-.587l.374-1.474a1.85 1.85 0 01.994-1.214l2.639-1.267a.247.247 0 00-.15-.466l-2.936.508a2.057 2.057 0 01-1.674-.45l-.928-.778a.533.533 0 01.301-.941l2.835-.222a.537.537 0 00.452-.328l1.093-2.64a.535.535 0 01.987 0l1.094 2.64a.535.535 0 00.451.328l2.851.223a.533.533 0 01.305.938l-2.174 1.854a.534.534 0 00-.173.531l.668 2.776a.533.533 0 01-.798.581l-2.438-1.494a.534.534 0 00-.558 0z" fill="#FFF842"/><path d="M95.076 107.107l-2.92 1.788a.644.644 0 01-.962-.708l.452-1.779a2.24 2.24 0 011.2-1.466l3.186-1.53a.298.298 0 00-.18-.562l-3.546.613a2.484 2.484 0 01-2.02-.544l-1.12-.938a.644.644 0 01.363-1.137l3.422-.268a.645.645 0 00.546-.396l1.32-3.187a.645.645 0 011.192 0l1.32 3.187a.645.645 0 00.545.396l3.441.269a.646.646 0 01.368 1.134l-2.624 2.237a.646.646 0 00-.209.642l.807 3.351a.644.644 0 01-.964.701l-2.944-1.803a.643.643 0 00-.673 0zm12.358 22.614l-1.557.954a.344.344 0 01-.513-.378l.241-.949c.087-.342.321-.628.64-.781l1.698-.816a.158.158 0 00.075-.212.16.16 0 00-.171-.088l-1.89.327a1.324 1.324 0 01-1.078-.29l-.597-.5a.344.344 0 01.194-.606l1.825-.143a.345.345 0 00.291-.211l.704-1.7a.344.344 0 01.635 0l.704 1.7a.344.344 0 00.291.211l1.834.143a.345.345 0 01.197.605l-1.4 1.193a.345.345 0 00-.111.342l.43 1.787a.343.343 0 01-.514.373l-1.569-.961a.341.341 0 00-.359 0zm12.743-19.797l-1.141.699a.252.252 0 01-.375-.277l.176-.694a.876.876 0 01.469-.573l1.244-.597a.117.117 0 00-.07-.22l-1.385.24a.972.972 0 01-.789-.213l-.438-.366a.253.253 0 01.143-.444l1.336-.105a.25.25 0 00.213-.155l.516-1.244a.252.252 0 01.465 0l.516 1.244a.25.25 0 00.212.155l1.344.105a.252.252 0 01.144.443l-1.025.874a.25.25 0 00-.081.25l.315 1.309a.253.253 0 01-.377.274l-1.149-.705a.254.254 0 00-.263 0z" fill="#FFF842"/></g></g><defs><linearGradient id="paint0_linear_44_19677" x1="15.722" y1="36.671" x2="133.321" y2="134.252" gradientUnits="userSpaceOnUse"><stop stop-color="#F084CA"/><stop offset=".21" stop-color="#F084CA"/><stop offset=".41" stop-color="#F084CA"/><stop offset=".71" stop-color="#9587E4"/><stop offset="1" stop-color="#3A8BFF"/></linearGradient><linearGradient id="paint1_linear_44_19677" x1="68.511" y1="46.554" x2="66.027" y2="88.879" gradientUnits="userSpaceOnUse"><stop offset=".33" stop-color="#1D4680"/><stop offset=".34" stop-color="#3A8BFF"/><stop offset=".42" stop-color="#9587E4"/><stop offset=".5" stop-color="#F084CA"/><stop offset=".59" stop-color="#F8A4DA"/><stop offset=".67" stop-color="#806275"/><stop offset=".68"/></linearGradient><linearGradient id="paint2_linear_44_19677" x1="105.294" y1="46.664" x2="102.81" y2="88.989" gradientUnits="userSpaceOnUse"><stop offset=".33" stop-color="#1D4680"/><stop offset=".34" stop-color="#3A8BFF"/><stop offset=".42" stop-color="#9587E4"/><stop offset=".5" stop-color="#F084CA"/><stop offset=".59" stop-color="#F8A4DA"/><stop offset=".67" stop-color="#806275"/><stop offset=".68"/></linearGradient><clipPath id="clip0_44_19677"><path fill="#fff" transform="translate(.5)" d="M0 0h164v164H0z"/></clipPath></defs></svg>