<svg width="165" height="164" fill="none" xmlns="http://www.w3.org/2000/svg"><mask id="mask0_44_19995" style="mask-type:luminance" maskUnits="userSpaceOnUse" x="0" y="0" width="165" height="164"><path d="M164.5 0H.5v164h164V0z" fill="#fff"/></mask><g mask="url(#mask0_44_19995)"><mask id="mask1_44_19995" style="mask-type:luminance" maskUnits="userSpaceOnUse" x="0" y="0" width="165" height="164"><path d="M.5 0h164v164H.5V0z" fill="#fff"/></mask><g mask="url(#mask1_44_19995)"><path d="M75.022 87.747c-9.685 4.998-17.906 17.837-19.89 32.17-.48 3.478-7.224 7.067-6.903 10.63 1.784 19.77 69.952 20.9 88.851 10.931 6.5-3.429 14.694-6.417 13.611-17.261-.909-8.923-4.473-32.603-16.449-36.766" fill="#FFD527"/><path d="M75.022 87.747c-9.685 4.998-17.906 17.837-19.89 32.17-.48 3.478-7.224 7.067-6.903 10.63 1.784 19.77 69.952 20.9 88.851 10.931 6.5-3.429 14.694-6.417 13.611-17.261-.909-8.923-4.473-32.603-16.449-36.766" stroke="#FA9016" stroke-width="3.523" stroke-linecap="round" stroke-linejoin="round"/><path d="M78.572 138.74c-5.153-.217-12.547-3.704-13.107-4.794" stroke="#FCEE21" stroke-width="2.818" stroke-linecap="round" stroke-linejoin="round"/><path d="M66.972 99.069c-8.494-6.156-13.552-14.9-13.802-25.271-.532-22.034 20.668-44.169 47.465-44.715 26.797-.547 49.043 20.7 49.575 42.734.25 10.4-4.406 19.301-12.492 25.746" fill="#FFD527"/><path d="M66.972 99.069c-8.494-6.156-13.552-14.9-13.802-25.271-.532-22.034 20.668-44.169 47.465-44.715 26.797-.547 49.043 20.7 49.575 42.734.25 10.4-4.406 19.301-12.492 25.746" stroke="#FA9016" stroke-width="3.523" stroke-linecap="round" stroke-linejoin="round"/><path d="M119.345 39.454c-7.047-4.034-15.905-4.696-22.68-3.797" stroke="#fff" stroke-width="2.818" stroke-linecap="round" stroke-linejoin="round"/><path d="M103.906 62.076c8.199 1.557 11.047-5.905 14.071-5.196 3.385.794 3.916 9.903 10.801 12.206 4.124 1.38 5.322 3.697 4.71 5.381-.286.91-1.759 1.8-3.608 1.932-1.389 1.881-4.715 2.468-6.56 2.443-11.235-.156-20.986-4.634-23.609-7.293-1.681-1.705-2.62-3.822-2.508-5.871.113-2.05 2.458-4.409 6.703-3.602z" fill="#FF5D1F"/><path d="M103.906 62.076c8.199 1.557 11.047-5.905 14.071-5.196 3.385.794 3.916 9.903 10.801 12.206 4.124 1.38 5.322 3.697 4.71 5.381-.286.91-1.759 1.8-3.608 1.932-1.389 1.881-4.715 2.468-6.56 2.443-11.235-.156-20.986-4.634-23.609-7.293-1.681-1.705-2.62-3.822-2.508-5.871.113-2.05 2.458-4.409 6.703-3.602z" stroke="#CF3502" stroke-width="3.523" stroke-linejoin="round"/><path d="M120.032 67.126c-1.28-1.66-2.304-3.905-2.682-5.318" stroke="#fff" stroke-width="3.523" stroke-linecap="round" stroke-linejoin="round" opacity=".33"/><path d="M129.248 75.03c-12.653-.563-20.796-4.668-25.822-7.18" stroke="#7D0909" stroke-width="3.523" stroke-linecap="round" stroke-linejoin="round"/><path d="M146.562 62.34c-.109 5.208-3.395 9.37-7.338 9.292-3.944-.078-7.051-4.369-6.942-9.576.11-5.208 3.395-9.36 7.339-9.282 3.943.078 7.051 4.358 6.941 9.566z" fill="#000"/><path d="M146.562 62.34c-.109 5.208-3.395 9.37-7.338 9.292-3.944-.078-7.051-4.369-6.942-9.576.11-5.208 3.395-9.36 7.339-9.282 3.943.078 7.051 4.358 6.941 9.566z" stroke="#000" stroke-width=".003" stroke-linecap="round" stroke-linejoin="round"/><path d="M139.442 59.247c.64 1.33 1.956 1.867 2.941 1.2.985-.667 1.264-2.287.625-3.617-.64-1.33-1.956-1.867-2.941-1.2-.985.668-1.264 2.287-.625 3.617z" fill="#FEFEFE"/><path d="M103.381 51.345c-1.758 4.92-6.759 7.705-11.166 6.215-4.408-1.49-6.554-6.692-4.795-11.612 1.759-4.92 6.756-7.695 11.163-6.204 4.408 1.49 6.557 6.682 4.798 11.601z" fill="#000"/><path d="M103.381 51.345c-1.758 4.92-6.759 7.705-11.166 6.215-4.408-1.49-6.554-6.692-4.795-11.612 1.759-4.92 6.756-7.695 11.163-6.204 4.408 1.49 6.557 6.682 4.798 11.601z" stroke="#000" stroke-width=".004" stroke-linecap="round" stroke-linejoin="round"/><path d="M96.35 45.844c.302 1.496 1.613 2.48 2.929 2.199 1.316-.282 2.139-1.724 1.838-3.22-.301-1.497-1.612-2.481-2.928-2.199-1.317.282-2.14 1.724-1.839 3.22z" fill="#FEFEFE"/><path d="M65.309 107.041c-14.606 3.074-39.062 2.101-36.584 8.136 1.33 3.347 11.805 15.28 26.183 15.959" fill="#FFD527"/><path d="M65.309 107.041c-14.606 3.074-39.062 2.101-36.584 8.136 1.33 3.347 11.805 15.28 26.183 15.959" stroke="#FA9016" stroke-width="3.524" stroke-linecap="round" stroke-linejoin="round"/><path d="M39.56 113.382c4.86-.277 8.764-.891 14.058-1.421" stroke="#fff" stroke-width="2.818" stroke-linecap="round" stroke-linejoin="round"/><path d="M126.359 108.799c-15.264-7.249-17.353-26.895-24.599-23.576-2.754 1.26-3.238 20.157 1.646 32.332" fill="#FFD527"/><path d="M126.359 108.799c-15.264-7.249-17.353-26.895-24.599-23.576-2.754 1.26-3.238 20.157 1.646 32.332" stroke="#FA9016" stroke-width="3.524" stroke-linecap="round" stroke-linejoin="round"/><path d="M109.238 97.148c1.888 3.091 5.151 6.529 9.325 10.042" stroke="#FCEE21" stroke-width="2.819" stroke-linecap="round" stroke-linejoin="round"/><path d="M53.674 129.103l-42.804 2.065c-1.625.078-2.896-1.181-2.837-2.813l1.122-31.334c.058-1.632 1.424-3.019 3.05-3.097l42.803-2.065c1.625-.078 2.896 1.181 2.837 2.814l-1.122 31.333c-.058 1.632-1.423 3.019-3.049 3.097z" fill="url(#paint0_linear_44_19995)"/><path d="M53.674 129.103l-42.804 2.065c-1.625.078-2.896-1.181-2.837-2.813l1.122-31.334c.058-1.632 1.424-3.019 3.05-3.097l42.803-2.065c1.625-.078 2.896 1.181 2.837 2.814l-1.122 31.333c-.058 1.632-1.423 3.019-3.049 3.097z" stroke="#000" stroke-width="1.886" stroke-linecap="round" stroke-linejoin="round"/><path d="M11.77 136.839l41.716-1.967a3.576 3.576 0 003.399-3.744l-.018-.372a1.767 1.767 0 00-1.85-1.679l-45.329 2.142a1.766 1.766 0 00-1.68 1.849l.019.372a3.576 3.576 0 003.744 3.399z" fill="#E0D8CB"/><path d="M11.77 136.839l41.716-1.967a3.576 3.576 0 003.399-3.744l-.018-.372a1.767 1.767 0 00-1.85-1.679l-45.329 2.142a1.766 1.766 0 00-1.68 1.849l.019.372a3.576 3.576 0 003.744 3.399z" stroke="#999" stroke-width="1.886" stroke-linecap="round" stroke-linejoin="round"/><path d="M5.683 137.134l40.08-1.933a3.576 3.576 0 003.4-3.744l-.018-.372a1.767 1.767 0 00-1.85-1.679L3.6 131.514a1.766 1.766 0 00-1.679 1.849l.018.372a3.576 3.576 0 003.744 3.399z" fill="#E0D8CB"/><path d="M5.683 137.134l40.08-1.933a3.576 3.576 0 003.4-3.744l-.018-.372a1.767 1.767 0 00-1.85-1.679L3.6 131.514a1.766 1.766 0 00-1.679 1.849l.018.372a3.576 3.576 0 003.744 3.399z" stroke="#999" stroke-width="1.886" stroke-linecap="round" stroke-linejoin="round"/><path d="M22.175 111.948c10.135-5.037 15.737-7.777 17.682-8.354 1.672-.495 1.65.769 1.66.993.118 2.601-1.214 13.798-1.303 14.514-.183 1.477-.692 1.994-1.211 2.067-1.129.159-2.043-.653-3.187-1.32-1.79-1.044-2.806-1.698-4.544-2.718-2.008-1.177-.801-1.936.227-3.13.216-.25 3.272-3.358 4.527-4.808.4-.462.725-.801.425-1.039-.276-.219-.666.117-1.328.595-1.186.858-3.516 2.597-6.99 5.218-.746.573-1.436.868-2.07.884-.7.019-2.065-.295-3.083-.571-1.249-.339-2.234-.502-2.192-1.182.023-.353.485-.736 1.387-1.149z" fill="#fff"/><path d="M156.048 119.294l-1.596 3.238.707-35.395 1.464 3.38-.575 28.777z" fill="#E0D8CB"/><path d="M156.048 119.294l-1.596 3.238.707-35.395 1.464 3.38-.575 28.777z" stroke="#999" stroke-width="2.37" stroke-linecap="round" stroke-linejoin="round"/><path d="M147.112 139.825c-.037 1.868-9.274 3.199-20.632 2.972-11.357-.227-20.534-1.925-20.497-3.793.037-1.869 9.342-6.582 20.7-6.355 11.357.227 20.467 5.308 20.429 7.176z" fill="#E0D8CB"/><path d="M147.112 139.825c-.037 1.868-9.274 3.199-20.632 2.972-11.357-.227-20.534-1.925-20.497-3.793.037-1.869 9.342-6.582 20.7-6.355 11.357.227 20.467 5.308 20.429 7.176z" stroke="#999" stroke-width="2.37" stroke-linecap="round" stroke-linejoin="round"/><path d="M147.39 125.892c-.108 5.434-9.404 9.656-20.761 9.429-11.358-.227-20.477-4.816-20.368-10.25.108-5.434 9.403-9.656 20.761-9.429 11.357.227 20.477 4.816 20.368 10.25z" fill="#E0D8CB"/><path d="M147.39 125.892c-.108 5.434-9.404 9.656-20.761 9.429-11.358-.227-20.477-4.816-20.368-10.25.108-5.434 9.403-9.656 20.761-9.429 11.357.227 20.477 4.816 20.368 10.25z" stroke="#999" stroke-width="2.37" stroke-linecap="round" stroke-linejoin="round"/><path d="M98.588 128.808l55.603 1.11 1.012-50.701-55.602-1.11-1.013 50.701z" fill="#E0D8CB"/><path d="M98.588 128.808l55.603 1.11 1.012-50.701-55.602-1.11-1.013 50.701z" stroke="#999" stroke-width="2.37" stroke-linecap="round" stroke-linejoin="round"/><path d="M155.355 125.193l-1.163 4.725 1.012-50.701.974 4.755-.823 41.221z" fill="#E0D8CB"/><path d="M155.355 125.193l-1.163 4.725 1.012-50.701.974 4.755-.823 41.221z" stroke="#999" stroke-width="2.37" stroke-linecap="round" stroke-linejoin="round"/><path d="M105.814 121.032l41.466.828.696-34.867-41.466-.828-.696 34.867z" fill="url(#paint1_linear_44_19995)"/><path d="M105.814 121.032l41.466.828.696-34.867-41.466-.828-.696 34.867z" stroke="#999" stroke-width="2.37" stroke-linecap="round" stroke-linejoin="round"/><path d="M147.976 86.993l-41.466-.828-.696 34.867" stroke="#686868" stroke-width="2.37" stroke-linecap="round" stroke-linejoin="round"/><path d="M146.989 125.884l-2.644-.053m-4.526-.09l-2.644-.053" stroke="#999" stroke-width="2.37" stroke-linecap="round" stroke-linejoin="round"/><path d="M113.282 102.199c13.222-5.45 20.527-8.405 23.024-8.962 2.147-.478 1.989 1.106 1.978 1.387-.121 3.272-2.945 17.197-3.131 18.088-.381 1.836-1.072 2.44-1.731 2.487-1.43.103-2.493-.994-3.858-1.928-2.136-1.462-3.341-2.37-5.414-3.796-2.396-1.649-.805-2.496.607-3.906.296-.295 4.447-3.929 6.17-5.64.548-.546.991-.943.64-1.267-.323-.299-.848.09-1.726.633-1.575.973-4.675 2.955-9.299 5.943-.995.655-1.89.965-2.686.932-.878-.036-2.558-.547-3.805-.981-1.53-.531-2.749-.82-2.625-1.668.064-.442.683-.883 1.856-1.322z" fill="#fff"/></g></g><defs><linearGradient id="paint0_linear_44_19995" x1="55.075" y1="101.765" x2="86.256" y2="85.632" gradientUnits="userSpaceOnUse"><stop offset=".28" stop-color="#00A5ED"/><stop offset=".29" stop-color="#fff"/><stop offset=".52" stop-color="#fff"/><stop offset=".75" stop-color="#fff"/><stop offset=".76" stop-color="#00A5ED"/></linearGradient><linearGradient id="paint1_linear_44_19995" x1="70.467" y1="113.491" x2="111.63" y2="102.275" gradientUnits="userSpaceOnUse"><stop offset=".28" stop-color="#00A5ED"/><stop offset=".29" stop-color="#fff"/><stop offset=".52" stop-color="#fff"/><stop offset=".75" stop-color="#fff"/><stop offset=".76" stop-color="#00A5ED"/></linearGradient></defs></svg>