<svg width="179" height="125" fill="none" xmlns="http://www.w3.org/2000/svg"><g clip-path="url(#clip0_44_20136)"><path d="M54.645-20.876V.011m14.519-20.887V.011m4.84-28.197V7.32m4.84-28.196V.011m38.678-29.241V8.366m9.679-33.42V4.188" stroke="#fff" stroke-width="3.535" stroke-linecap="round" stroke-linejoin="round"/><path d="M109.242 51c-.677-11.707 1.547-14.99-5.645-14.99-7.192 0-12.404 5.123-13.53 15.57-1.424 13.208 6.371 16.998 12.161 16.975 5.789-.023 7.674-6.141 7.014-17.555z" fill="#666"/><path d="M109.242 51c-.677-11.707 1.547-14.99-5.645-14.99-7.192 0-12.404 5.123-13.53 15.57-1.424 13.208 6.371 16.998 12.161 16.975 5.789-.023 7.674-6.141 7.014-17.555z" stroke="#000" stroke-width="3.195" stroke-linecap="round" stroke-linejoin="round"/><path d="M96.51 52.19c-1.468 5.913 1.75 16.064 5.812 16.453L96.51 52.191z" fill="#666"/><path d="M96.51 52.19c-1.468 5.913 1.75 16.064 5.812 16.453" stroke="#000" stroke-width="3.195" stroke-linecap="round" stroke-linejoin="round"/><path d="M61.523 48.397c0-12.52 4.04-15.925 9.285-16.335 5.51-.43 11.537 6.798 11.698 17.117.222 14.183-4.047 17.006-10.917 17.338-6.87.333-10.066-5.913-10.066-18.12z" fill="#666"/><path d="M61.523 48.397c0-12.52 4.04-15.925 9.285-16.335 5.51-.43 11.537 6.798 11.698 17.117.222 14.183-4.047 17.006-10.917 17.338-6.87.333-10.066-5.913-10.066-18.12z" stroke="#000" stroke-width="3.195" stroke-linecap="round" stroke-linejoin="round"/><path d="M73.663 41.738c3.137 5.54 2.788 23.165-2.005 23.83l2.005-23.83z" fill="#666"/><path d="M73.663 41.738c3.137 5.54 2.788 23.165-2.005 23.83" stroke="#000" stroke-width="3.195" stroke-linecap="round" stroke-linejoin="round"/><path d="M134.304 101.988c-14.582 0-29.744-2.832-30.969-12.89-.32-2.632-.173-5.503.296-7.349.756-2.974 1.098-4.201 1.752-6.208 5.433-16.66 12.331-18.154 28.921-18.154 18.107 0 31.835 6.058 33.108 28.724.924 16.462-18.452 15.877-33.108 15.877z" fill="#FFD527"/><path d="M134.304 101.988c-14.582 0-29.744-2.832-30.969-12.89-.32-2.632-.173-5.503.296-7.349.756-2.974 1.098-4.201 1.752-6.208 5.433-16.66 12.331-18.154 28.921-18.154 18.107 0 31.835 6.058 33.108 28.724.924 16.462-18.452 15.877-33.108 15.877z" stroke="#FA9016" stroke-width="2.572" stroke-linecap="round" stroke-linejoin="round"/><path d="M41.777 101.988c14.582 0 29.745-2.832 30.969-12.89.32-2.632.174-5.503-.296-7.348-.755-2.974-1.098-4.202-1.752-6.209-5.433-16.66-12.331-18.154-28.921-18.154-14.485 0-25.622.973-31.13 13.457-1.376 3.12-2.468 9.04-2.328 12.993-6.263-.28-1.822 8.044-.563 10.121 4.985 8.228 22.32 8.03 34.02 8.03z" fill="#FFD527"/><path d="M41.777 101.988c14.582 0 29.745-2.832 30.969-12.89.32-2.632.174-5.503-.296-7.348-.755-2.974-1.098-4.202-1.752-6.209-5.433-16.66-12.331-18.154-28.921-18.154-14.485 0-25.622.973-31.13 13.457-1.376 3.12-2.468 9.04-2.328 12.993-6.263-.28-1.822 8.044-.563 10.121 4.985 8.228 22.32 8.03 34.02 8.03z" stroke="#FA9016" stroke-width="2.572" stroke-linecap="round" stroke-linejoin="round"/><path d="M89.861 84.286c42.501 0 79.041 3.658 86.793 12.67 1.035 1.203.44 5.595.44 6.866 0 10.79-39.056 19.536-87.233 19.536-48.177 0-87.233-8.746-87.233-19.536 0-.623-.395-5.7-.14-6.308 4.155-9.923 41.977-13.228 87.373-13.228z" fill="#A27733"/><path d="M89.861 84.286c42.501 0 79.041 3.658 86.793 12.67 1.035 1.203.44 5.595.44 6.866 0 10.79-39.056 19.536-87.233 19.536-48.177 0-87.233-8.746-87.233-19.536 0-.623-.395-5.7-.14-6.308 4.155-9.923 41.977-13.228 87.373-13.228z" stroke="#886226" stroke-width="2.939"/><path d="M89.86 78.338c48.178 0 87.234 8.747 87.234 19.536 0 10.789-39.056 19.536-87.233 19.536-48.178 0-87.233-8.747-87.233-19.536 0-10.79 39.056-19.536 87.233-19.536z" fill="#C99D58"/><path d="M89.86 78.338c48.178 0 87.234 8.747 87.234 19.536 0 10.789-39.056 19.536-87.233 19.536-48.178 0-87.233-8.747-87.233-19.536 0-10.79 39.056-19.536 87.233-19.536z" stroke="#886226" stroke-width="2.939"/><path d="M105.222 70.131c-14.904 15.352 2.91 18.998 5.981 17.321 2.695-.697-3.04-6.256 1.216-9.966" fill="#FFD527"/><path d="M105.222 70.131c-14.904 15.352 2.91 18.998 5.981 17.321 2.695-.697-3.04-6.256 1.216-9.966" stroke="#FA9016" stroke-width="2.572" stroke-linecap="round" stroke-linejoin="round"/><path d="M160.979 72.353c5.861-5.058 9.175-12.018 8.993-20.09-.386-17.15-16.318-33.681-35.502-33.25-19.183.432-34.354 17.665-33.968 34.814.182 8.094 3.822 14.867 9.829 19.62" fill="#FFD527"/><path d="M160.979 72.353c5.861-5.058 9.175-12.018 8.993-20.09-.386-17.15-16.318-33.681-35.502-33.25-19.183.432-34.354 17.665-33.968 34.814.182 8.094 3.822 14.867 9.829 19.62" stroke="#FA9016" stroke-width="2.572" stroke-linecap="round" stroke-linejoin="round"/><path d="M115.626 32.812c4.178-4.02 9.778-6.825 15.818-7.845" stroke="#fff" stroke-width="2.421" stroke-linecap="round" stroke-linejoin="round"/><path d="M159.955 38.247c3.024 4.265 4.834 9.215 4.947 14.232.121 5.371-1.721 10.035-4.957 13.76" stroke="#FCEE21" stroke-width="2.421" stroke-linecap="round" stroke-linejoin="round"/><path d="M130.035 51.915c.963 3.122 4.057 5.097 6.913 4.41 2.855-.686 4.389-3.773 3.426-6.896-.962-3.122-4.057-5.097-6.912-4.41-2.856.686-4.39 3.774-3.427 6.896z" fill="#000"/><path d="M136.493 48.191c-.027.834-.929 1.48-2.012 1.444-1.084-.035-1.941-.74-1.913-1.575.028-.833.929-1.48 2.013-1.444 1.084.036 1.94.741 1.912 1.575z" fill="#fff"/><path d="M114.798 51.855c-1.024 3.056-3.817 4.835-6.237 3.973-2.421-.862-3.554-4.038-2.53-7.094 1.024-3.057 3.817-4.836 6.237-3.974 2.421.862 3.554 4.038 2.53 7.095z" fill="#000"/><path d="M112.262 48.045c.093.866-.511 1.664-1.35 1.781-.214.03-.424.013-.618-.044a1.52 1.52 0 01-1.069-1.31c-.093-.866.511-1.663 1.35-1.781.838-.118 1.594.488 1.687 1.354z" fill="#fff"/><path d="M164.94 85.53c-3.576 11.394-21.24 7.256-23.175 3.968-1.232-2.093 9.261.095 9.703-12.726" fill="#FFD527"/><path d="M164.94 85.53c-3.576 11.394-21.24 7.256-23.175 3.968-1.232-2.093 9.261.095 9.703-12.726" stroke="#FA9016" stroke-width="2.572" stroke-linecap="round" stroke-linejoin="round"/><path d="M154.352 80.436c-.514 2.407-1.665 4.978-5.087 7.503" stroke="#fff" stroke-width="2.421" stroke-linecap="round" stroke-linejoin="round"/><path d="M136.325 62.404c-13.991.247-11.475-10.034-15.044-9.52-4.107.591-2.743 8.84-12.037 8.825-3.12-.006-4.88 1.527-2.844 3.962-2.034 1.86-.481 3.288.903 3.829 6.955 2.72 22.559 2.625 29.453.825 2.271-.594 3.647-2.62 3.623-4.48.007-1.75-1.228-3.492-4.054-3.441z" fill="#FF5D1F"/><path d="M136.325 62.404c-13.991.247-11.475-10.034-15.044-9.52-4.107.591-2.743 8.84-12.037 8.825-3.12-.006-4.88 1.527-2.844 3.962-2.034 1.86-.481 3.288.903 3.829 6.955 2.72 22.559 2.625 29.453.825 2.271-.594 3.647-2.62 3.623-4.48.007-1.75-1.228-3.492-4.054-3.441z" stroke="#CF3502" stroke-width="2.421" stroke-linecap="round" stroke-linejoin="round"/><path d="M114.81 63.57c2.073-.555 4.811-3.752 5.48-6.752" stroke="#FFB484" stroke-width="2.421" stroke-linecap="round" stroke-linejoin="round"/><path d="M136.217 66.354c-9.839 2.187-26.081 1.153-28.822-.608 2.03.605 6.181 1.575 10.755 1.823 7.06.383 14.682-.59 18.067-1.215z" fill="#7D0909"/><path d="M136.218 66.355c-9.839 2.186-26.082 1.152-28.823-.609 2.03.606 6.181 1.575 10.756 1.823 7.059.383 14.682-.59 18.067-1.214z" stroke="#7D0909" stroke-width=".411"/><path d="M136.218 66.355c-9.839 2.186-26.082 1.152-28.823-.609 2.03.606 6.181 1.575 10.756 1.823 7.059.383 14.682-.59 18.067-1.214z" stroke="#7D0909" stroke-width="2.421" stroke-linecap="round" stroke-linejoin="round"/><path d="M58.56 74.993c-.251 5.901-10.568.99-10.173 4.723.004 5.69 22.253 9.54 22.552-3.873" fill="#FFD527"/><path d="M58.56 74.993c-.251 5.901-10.568.99-10.173 4.723.004 5.69 22.253 9.54 22.552-3.873" stroke="#FA9016" stroke-width="2.572" stroke-linecap="round" stroke-linejoin="round"/><path d="M66.53 72.236c1.467 2.17 3.575 5.013 4.694 7.065" stroke="#FCEE21" stroke-width="2.421" stroke-linecap="round" stroke-linejoin="round"/><path d="M16.5 72.354c-5.86-5.059-9.174-12.018-8.992-20.091.386-17.15 16.317-33.681 35.501-33.25 19.184.433 34.355 17.665 33.969 34.814-.182 8.095-3.822 14.867-9.83 19.62" fill="#FFD527"/><path d="M16.5 72.354c-5.86-5.059-9.174-12.018-8.992-20.091.386-17.15 16.317-33.681 35.501-33.25 19.184.433 34.355 17.665 33.969 34.814-.182 8.095-3.822 14.867-9.83 19.62" stroke="#FA9016" stroke-width="2.572" stroke-linecap="round" stroke-linejoin="round"/><path d="M42.35 24.33c-5.798.073-11.755 2.007-16.772 5.523" stroke="#fff" stroke-width="2.421" stroke-linecap="round" stroke-linejoin="round"/><path d="M67.842 64.611c2.533-4.573 3.784-9.693 3.341-14.69-.474-5.353-2.82-9.785-6.448-13.128" stroke="#FCEE21" stroke-width="2.421" stroke-linecap="round" stroke-linejoin="round"/><path d="M41.511 53.308c-.947 3.456-4.203 5.7-7.273 5.014-3.07-.688-4.792-4.047-3.845-7.503.947-3.456 4.203-5.7 7.273-5.013 3.07.687 4.792 4.046 3.845 7.502z" fill="#000"/><path d="M34.509 49.365c.052.916 1.032 1.606 2.19 1.54 1.157-.064 2.054-.86 2.003-1.776-.052-.916-1.032-1.606-2.19-1.541-1.158.065-2.055.86-2.003 1.777z" fill="#fff"/><path d="M61.18 50.98c1.203 3.335 4.319 5.22 6.96 4.212 2.64-1.01 3.804-4.531 2.601-7.866-1.203-3.335-4.32-5.22-6.96-4.212-2.64 1.01-3.805 4.531-2.602 7.866z" fill="#000"/><path d="M63.872 46.724c-.08.955.604 1.817 1.53 1.925.236.028.466.003.678-.064a1.67 1.67 0 001.142-1.468c.08-.955-.604-1.817-1.529-1.925-.925-.108-1.74.578-1.82 1.532z" fill="#fff"/><path d="M18.21 85.663c14.64 9.897 24.074-11.394 22.556-13.27-2.561-3.226-15.704 10.027-16.292 1.885" fill="#FFD527"/><path d="M18.21 85.663c14.64 9.897 24.074-11.394 22.556-13.27-2.561-3.226-15.704 10.027-16.292 1.885" stroke="#FA9016" stroke-width="2.572" stroke-linecap="round" stroke-linejoin="round"/><path d="M22.792 77.982c1.173 3.51 5.814 2.54 9.27.372" stroke="#fff" stroke-width="2.421" stroke-linecap="round" stroke-linejoin="round"/><path d="M41.885 56.136c7.297-.431 6.653-9.256 9.874-8.867 3.707.447 3.2 8.957 11.14 7.607 2.717-.476 4.204 1.089 2.162 3.613 1.868 1.63.871 3.099-.22 3.81-5.478 3.559-16.591 3.607-22.684 1.355-2.254-.887-3.831-2.663-3.848-4.337-.042-1.575 1.037-3.031 3.576-3.18z" fill="#FF5D1F"/><path d="M41.885 56.136c7.297-.431 6.653-9.256 9.874-8.867 3.707.447 3.2 8.957 11.14 7.607 2.717-.476 4.204 1.089 2.162 3.613 1.868 1.63.871 3.099-.22 3.81-5.478 3.559-16.591 3.607-22.684 1.355-2.254-.887-3.831-2.663-3.848-4.337-.042-1.575 1.037-3.031 3.576-3.18z" stroke="#CF3502" stroke-width="2.222" stroke-linecap="round" stroke-linejoin="round"/><path d="M47.268 56.154c1.771-.9 2.776-3.055 3.947-5.461" stroke="#FFB484" stroke-width="2.178" stroke-linecap="round" stroke-linejoin="round"/><path d="M41.56 59.533c6.875 1.463 20.613.36 22.96-.978-1.115 1.11-4.713 2.402-8.352 2.694-5.618.45-12.017-.316-14.609-1.716z" fill="#7D0909"/><path d="M41.561 59.533c6.875 1.463 20.613.36 22.96-.978-1.115 1.11-4.712 2.402-8.353 2.694-5.617.45-12.016-.316-14.607-1.716z" stroke="#7D0909" stroke-width="2.178" stroke-linecap="round" stroke-linejoin="round"/><path d="M41.16 38.987c-2.627-.566-6.126.834-7.532 1.936m26.242-2.708c2.547-.858 6.181.14 7.703 1.077" stroke="#000" stroke-width="2.178" stroke-linecap="round" stroke-linejoin="round"/><path d="M77.673 102.386v-19.63m10.024 18.114l-10.025-3.707-9.94 4.296" stroke="#000" stroke-width="3.195" stroke-linecap="round" stroke-linejoin="round"/><path d="M84.85 89.552a8.088 8.088 0 002.666-11.123l-4.888-7.971a8.087 8.087 0 00-13.789 8.456l4.889 7.972a8.088 8.088 0 0011.123 2.666z" fill="#666"/><path d="M84.85 89.552a8.088 8.088 0 002.666-11.123l-4.888-7.971a8.087 8.087 0 00-13.789 8.456l4.889 7.972a8.088 8.088 0 0011.123 2.666z" stroke="#000" stroke-width="3.195" stroke-linecap="round" stroke-linejoin="round"/><path d="M80.789 77.135c-4.127-1.375-8.804 2.683-8.391 7.222l8.391-7.222z" fill="#666"/><path d="M80.789 77.135c-4.127-1.375-8.804 2.683-8.391 7.222" stroke="#000" stroke-width="3.195" stroke-linecap="round" stroke-linejoin="round"/><path d="M83.151 87.283c-3.942.911-6.129-.576-7.079-1.7" stroke="#B7B7B7" stroke-width="2.556" stroke-linecap="round" stroke-linejoin="round"/><path d="M123.352 108.684V89.055m10.025 18.114l-10.025-3.707-9.941 4.296" stroke="#000" stroke-width="3.195" stroke-linecap="round" stroke-linejoin="round"/><path d="M119.644 97.017a8.087 8.087 0 0010.304-4.964l3.087-8.826a8.087 8.087 0 10-15.267-5.341l-3.088 8.827a8.087 8.087 0 004.964 10.304z" fill="#666"/><path d="M119.644 97.017a8.087 8.087 0 0010.304-4.964l3.087-8.826a8.087 8.087 0 10-15.267-5.341l-3.088 8.827a8.087 8.087 0 004.964 10.304z" stroke="#000" stroke-width="3.195" stroke-linecap="round" stroke-linejoin="round"/><path d="M131.512 86.885c-2.216-5.844-10.98-7.366-15.659-2.785l15.659 2.785z" fill="#666"/><path d="M131.512 86.885c-2.216-5.844-10.98-7.366-15.659-2.785" stroke="#000" stroke-width="3.195" stroke-linecap="round" stroke-linejoin="round"/><path d="M118.478 86.184c-1.042.959-1.655 4.458.962 6.75" stroke="#B6B6B6" stroke-width="2.236" stroke-linecap="round" stroke-linejoin="round"/><path d="M68.624 71.923l4.724 7.523m3.236-11.984l4.112 6.298m-7.436-6.036l3.937 6.124m-6.648-4.637l5.335 8.31m46.511-3.751l-2.198 7.218m10.983-4.635l-1.777 6.581m-.932-8.224l-1.858 6.886m-.912-8.176l-2.121 7.76" stroke="#000" stroke-width="1.4" stroke-linecap="round" stroke-linejoin="round"/><path d="M153.382 53.822c0 12.521 3.583 16.673 9.464 16.685 7.775.017 12.841-5.923 12.991-16.241.207-14.184-6.312-19.28-12.728-19.613-6.416-.333-9.727 6.962-9.727 19.17z" fill="#666"/><path d="M153.382 53.822c0 12.521 3.583 16.673 9.464 16.685 7.775.017 12.841-5.923 12.991-16.241.207-14.184-6.312-19.28-12.728-19.613-6.416-.333-9.727 6.962-9.727 19.17z" stroke="#000" stroke-width="3.195" stroke-linecap="round" stroke-linejoin="round"/><path d="M163.221 36.622c-.315-12.95-15.094-29.848-31.567-29.106-17.175.773-28.024 12.248-30.167 30.245" stroke="#000" stroke-width="3.195" stroke-linecap="round" stroke-linejoin="round"/><path d="M148 12.439c-4.852-3.223-10.492-5.187-16.346-4.923-7.284.328-13.43 2.58-18.257 6.44" stroke="#000" stroke-width="7.028" stroke-linecap="round" stroke-linejoin="round"/><path d="M163.699 43.96c-2.93 5.541-2.686 25.265 1.79 25.93l-1.79-25.93z" fill="#666"/><path d="M163.699 43.96c-2.93 5.541-2.686 25.265 1.79 25.93" stroke="#000" stroke-width="3.195" stroke-linecap="round" stroke-linejoin="round"/><path d="M22.955 54.347c0 12.521-4.542 15.39-9.248 15.46-5.094.077-10.868-5.91-11.02-16.23-.211-14.183 4.923-19.292 11.439-19.624 6.516-.333 8.83 8.187 8.83 20.394z" fill="#666"/><path d="M22.955 54.347c0 12.521-4.542 15.39-9.248 15.46-5.094.077-10.868-5.91-11.02-16.23-.211-14.183 4.923-19.292 11.439-19.624 6.516-.333 8.83 8.187 8.83 20.394z" stroke="#000" stroke-width="3.111" stroke-linecap="round" stroke-linejoin="round"/><path d="M15.697 37.5c-.1-13.297 13.45-31.128 29.158-30.915C60.62 6.798 71.11 17.382 74.188 34.58" stroke="#000" stroke-width="3.111" stroke-linecap="round" stroke-linejoin="round"/><path d="M29.443 12.18c4.521-3.468 9.83-5.67 15.412-5.595 6.946.094 12.867 2.2 17.583 6" stroke="#000" stroke-width="6.845" stroke-linecap="round" stroke-linejoin="round"/><path d="M13.527 43.262c2.976 5.54 2.728 25.264-1.818 25.929l1.818-25.93z" fill="#666"/><path d="M13.527 43.262c2.976 5.54 2.728 25.264-1.818 25.929" stroke="#000" stroke-width="3.111" stroke-linecap="round" stroke-linejoin="round"/><path d="M10.205 38.274c-6.313 4.083-4.738 14.842-4.307 17.182" stroke="#A7A7A7" stroke-width="2.489" stroke-linecap="round" stroke-linejoin="round"/></g><defs><clipPath id="clip0_44_20136"><path fill="#fff" d="M0 0h179v124.758H0z"/></clipPath></defs></svg>