<svg width="64" height="64" viewBox="0 0 64 64" fill="none" xmlns="http://www.w3.org/2000/svg">
<path d="M32 64C49.674 64 64 49.674 64 32C64 14.326 49.674 0 32 0C14.326 0 0 14.326 0 32C0 49.674 14.326 64 32 64Z" fill="#0098EA"/>
<path d="M42.9256 17.8599H21.0716C17.0536 17.8599 14.5076 22.1938 16.5296 25.6998L30.0156 49.0758C30.8956 50.6018 33.1016 50.6018 33.9816 49.0758L47.4716 25.6978C49.4916 22.1998 46.9416 17.8599 42.9256 17.8599ZM30.0056 42.0638L27.0676 36.3798L19.9796 23.7038C19.8719 23.5146 19.8161 23.3002 19.8178 23.0824C19.8194 22.8646 19.8785 22.651 19.9891 22.4634C20.0996 22.2756 20.2578 22.1206 20.4476 22.0134C20.6372 21.9064 20.8518 21.8514 21.0696 21.8538H29.9996V42.0678L30.0056 42.0638ZM44.0116 23.7018L36.9276 36.3818L33.9896 42.0638V21.8498H42.9236C43.9036 21.8498 44.4796 22.8898 44.0116 23.7018Z" fill="white"/>
</svg>
