<svg width="62" height="24" viewBox="0 0 62 24" fill="none" xmlns="http://www.w3.org/2000/svg">
<path d="M11.9798 24C18.5964 24 23.9596 18.6277 23.9596 12C23.9596 5.37225 18.5964 0 11.9798 0C5.36321 0 0 5.37225 0 12C0 18.6277 5.36321 24 11.9798 24Z" fill="#0098EA"/>
<path d="M16.07 6.69745H7.88855C6.38435 6.69745 5.4312 8.32268 6.18818 9.63743L11.2369 18.4034C11.5664 18.9757 12.3922 18.9757 12.7217 18.4034L17.7719 9.63667C18.5281 8.32493 17.5735 6.69745 16.07 6.69745ZM11.2332 15.7739L10.1333 13.6424L7.47975 8.88893C7.43943 8.81798 7.41853 8.73758 7.41916 8.6559C7.41978 8.57423 7.4419 8.49413 7.48329 8.42378C7.52467 8.35335 7.58389 8.29523 7.65495 8.25502C7.72593 8.2149 7.80627 8.19428 7.8878 8.19518H11.2309V15.7754L11.2332 15.7739ZM16.4766 8.88818L13.8245 13.6432L12.7247 15.7739V8.19368H16.0693C16.4361 8.19368 16.6518 8.58368 16.4766 8.88818Z" fill="white"/>
<path d="M31.5945 18.5535H34.2061V9.43125H37.8173V6.9465H27.9833V9.43125H31.5945V18.5535ZM44.0932 18.75C47.3899 18.75 50.0831 16.0522 50.0831 12.75C50.0831 9.44775 47.3899 6.75 44.0932 6.75C40.78 6.75 38.1033 9.44775 38.1033 12.75C38.1033 16.0522 40.78 18.75 44.0932 18.75ZM44.0932 16.2323C42.1996 16.2323 40.7141 14.6302 40.7141 12.75C40.7141 10.8698 42.1996 9.26775 44.0932 9.26775C45.9703 9.26775 47.455 10.8698 47.455 12.75C47.455 14.6302 45.9703 16.2323 44.0932 16.2323ZM62 18.5535V6.9465H59.3884V14.1068L53.7579 6.9465H51.5207V18.5535H54.1158V11.376L59.7635 18.5535H62Z" fill="#0098EA"/>
</svg>
